STARTFONT 2.1
FONT Iyagi_8x4x4
SIZE 16 72 72
FONTBOUNDINGBOX 8 16 0 0
SWIDTH 8000 0
DWIDTH 8 0
STARTPROPERTIES 2
FAMILY_NAME Iyagi_8x4x4
FONT_ASCENT 16
FONT_DESCENT 0
ENDPROPERTIES
CHARS 616
STARTCHAR U+0000
ENCODING 0
SWIDTH 8000 0
DWIDTH 8 0
BBX 8 16 0 0
BITMAP
00
00
00
00
00
00
00
00
00
00
00
00
00
00
00
00
ENDCHAR
STARTCHAR U+263A
ENCODING 9786
SWIDTH 8000 0
DWIDTH 8 0
BBX 8 16 0 0
BITMAP
00
00
7E
81
A5
81
81
81
BD
99
81
7E
00
00
00
00
ENDCHAR
STARTCHAR U+263B
ENCODING 9787
SWIDTH 8000 0
DWIDTH 8 0
BBX 8 16 0 0
BITMAP
00
00
7E
FF
DB
FF
FF
C3
E7
E7
FF
7E
00
00
00
00
ENDCHAR
STARTCHAR U+2665
ENCODING 9829
SWIDTH 8000 0
DWIDTH 8 0
BBX 8 16 0 0
BITMAP
00
00
00
36
7F
7F
7F
7F
3E
1C
08
00
00
00
00
00
ENDCHAR
STARTCHAR U+2666
ENCODING 9830
SWIDTH 8000 0
DWIDTH 8 0
BBX 8 16 0 0
BITMAP
00
00
00
08
1C
3E
7F
3E
1C
08
00
00
00
00
00
00
ENDCHAR
STARTCHAR U+2663
ENCODING 9827
SWIDTH 8000 0
DWIDTH 8 0
BBX 8 16 0 0
BITMAP
00
00
18
3C
3C
E7
E7
E7
18
18
3C
00
00
00
00
00
ENDCHAR
STARTCHAR U+2660
ENCODING 9824
SWIDTH 8000 0
DWIDTH 8 0
BBX 8 16 0 0
BITMAP
00
00
18
3C
7E
FF
FF
7E
18
18
3C
00
00
00
00
00
ENDCHAR
STARTCHAR U+2022
ENCODING 8226
SWIDTH 8000 0
DWIDTH 8 0
BBX 8 16 0 0
BITMAP
00
00
00
00
18
3C
3C
18
00
00
00
00
00
00
00
00
ENDCHAR
STARTCHAR U+25D8
ENCODING 9688
SWIDTH 8000 0
DWIDTH 8 0
BBX 8 16 0 0
BITMAP
7F
7F
7F
7F
63
41
41
41
63
7F
7F
7F
7F
7F
7F
7F
ENDCHAR
STARTCHAR U+25CB
ENCODING 9675
SWIDTH 8000 0
DWIDTH 8 0
BBX 8 16 0 0
BITMAP
00
00
00
00
1C
22
22
22
1C
00
00
00
00
00
00
00
ENDCHAR
STARTCHAR U+25D9
ENCODING 9689
SWIDTH 8000 0
DWIDTH 8 0
BBX 8 16 0 0
BITMAP
7F
7F
7F
7F
63
5D
5D
5D
63
7F
7F
7F
7F
7F
7F
7F
ENDCHAR
STARTCHAR U+2642
ENCODING 9794
SWIDTH 8000 0
DWIDTH 8 0
BBX 8 16 0 0
BITMAP
00
00
08
1C
2A
08
1C
22
41
41
22
1C
00
00
00
00
ENDCHAR
STARTCHAR U+2640
ENCODING 9792
SWIDTH 8000 0
DWIDTH 8 0
BBX 8 16 0 0
BITMAP
00
00
1C
22
41
41
22
1C
08
7F
08
08
00
00
00
00
ENDCHAR
STARTCHAR U+266A
ENCODING 9834
SWIDTH 8000 0
DWIDTH 8 0
BBX 8 16 0 0
BITMAP
00
00
18
14
12
12
12
10
30
70
70
20
00
00
00
00
ENDCHAR
STARTCHAR U+266B
ENCODING 9835
SWIDTH 8000 0
DWIDTH 8 0
BBX 8 16 0 0
BITMAP
00
00
1F
11
1F
11
11
11
13
37
77
72
20
00
00
00
ENDCHAR
STARTCHAR U+263C
ENCODING 9788
SWIDTH 8000 0
DWIDTH 8 0
BBX 8 16 0 0
BITMAP
00
00
18
18
DB
3C
E7
3C
DB
18
18
00
00
00
00
00
ENDCHAR
STARTCHAR U+25BA
ENCODING 9658
SWIDTH 8000 0
DWIDTH 8 0
BBX 8 16 0 0
BITMAP
00
00
20
30
38
3C
3E
3C
38
30
20
00
00
00
00
00
ENDCHAR
STARTCHAR U+25C4
ENCODING 9668
SWIDTH 8000 0
DWIDTH 8 0
BBX 8 16 0 0
BITMAP
00
00
02
06
0E
1E
3E
1E
0E
06
02
00
00
00
00
00
ENDCHAR
STARTCHAR U+2195
ENCODING 8597
SWIDTH 8000 0
DWIDTH 8 0
BBX 8 16 0 0
BITMAP
00
00
18
3C
7E
18
18
18
7E
3C
18
00
00
00
00
00
ENDCHAR
STARTCHAR U+203C
ENCODING 8252
SWIDTH 8000 0
DWIDTH 8 0
BBX 8 16 0 0
BITMAP
00
00
33
33
33
33
33
33
00
00
33
00
00
00
00
00
ENDCHAR
STARTCHAR U+00B6
ENCODING 182
SWIDTH 8000 0
DWIDTH 8 0
BBX 8 16 0 0
BITMAP
00
00
7F
DB
DB
DB
7B
1B
1B
1B
1B
00
00
00
00
00
ENDCHAR
STARTCHAR U+00A7
ENCODING 167
SWIDTH 8000 0
DWIDTH 8 0
BBX 8 16 0 0
BITMAP
00
3E
63
30
1C
36
63
63
36
1C
06
63
3E
00
00
00
ENDCHAR
STARTCHAR U+25AC
ENCODING 9644
SWIDTH 8000 0
DWIDTH 8 0
BBX 8 16 0 0
BITMAP
00
00
00
00
00
00
00
00
00
7E
7E
7E
00
00
00
00
ENDCHAR
STARTCHAR U+21A8
ENCODING 8616
SWIDTH 8000 0
DWIDTH 8 0
BBX 8 16 0 0
BITMAP
00
00
18
3C
7E
18
18
18
7E
3C
18
FF
00
00
00
00
ENDCHAR
STARTCHAR U+2191
ENCODING 8593
SWIDTH 8000 0
DWIDTH 8 0
BBX 8 16 0 0
BITMAP
00
00
18
3C
7E
18
18
18
18
18
18
00
00
00
00
00
ENDCHAR
STARTCHAR U+2193
ENCODING 8595
SWIDTH 8000 0
DWIDTH 8 0
BBX 8 16 0 0
BITMAP
00
00
18
18
18
18
18
18
7E
3C
18
00
00
00
00
00
ENDCHAR
STARTCHAR U+2192
ENCODING 8594
SWIDTH 8000 0
DWIDTH 8 0
BBX 8 16 0 0
BITMAP
00
00
00
00
0C
06
7F
06
0C
00
00
00
00
00
00
00
ENDCHAR
STARTCHAR U+2190
ENCODING 8592
SWIDTH 8000 0
DWIDTH 8 0
BBX 8 16 0 0
BITMAP
00
00
00
00
18
30
7F
30
18
00
00
00
00
00
00
00
ENDCHAR
STARTCHAR U+221F
ENCODING 8735
SWIDTH 8000 0
DWIDTH 8 0
BBX 8 16 0 0
BITMAP
00
00
00
80
80
80
80
80
80
FF
00
00
00
00
00
00
ENDCHAR
STARTCHAR U+2194
ENCODING 8596
SWIDTH 8000 0
DWIDTH 8 0
BBX 8 16 0 0
BITMAP
00
00
00
00
24
42
FF
42
24
00
00
00
00
00
00
00
ENDCHAR
STARTCHAR U+25B2
ENCODING 9650
SWIDTH 8000 0
DWIDTH 8 0
BBX 8 16 0 0
BITMAP
00
00
00
00
08
08
1C
1C
3E
3E
7F
00
00
00
00
00
ENDCHAR
STARTCHAR U+25BC
ENCODING 9660
SWIDTH 8000 0
DWIDTH 8 0
BBX 8 16 0 0
BITMAP
00
00
00
00
7F
3E
3E
1C
1C
08
08
00
00
00
00
00
ENDCHAR
STARTCHAR U+0020
ENCODING 32
SWIDTH 8000 0
DWIDTH 8 0
BBX 8 16 0 0
BITMAP
00
00
00
00
00
00
00
00
00
00
00
00
00
00
00
00
ENDCHAR
STARTCHAR U+0021
ENCODING 33
SWIDTH 8000 0
DWIDTH 8 0
BBX 8 16 0 0
BITMAP
00
00
18
3C
3C
3C
18
18
18
00
18
18
00
00
00
00
ENDCHAR
STARTCHAR U+0022
ENCODING 34
SWIDTH 8000 0
DWIDTH 8 0
BBX 8 16 0 0
BITMAP
00
66
66
66
24
00
00
00
00
00
00
00
00
00
00
00
ENDCHAR
STARTCHAR U+0023
ENCODING 35
SWIDTH 8000 0
DWIDTH 8 0
BBX 8 16 0 0
BITMAP
00
00
00
6C
6C
FE
6C
6C
6C
FE
6C
6C
00
00
00
00
ENDCHAR
STARTCHAR U+0024
ENCODING 36
SWIDTH 8000 0
DWIDTH 8 0
BBX 8 16 0 0
BITMAP
18
18
7C
C6
C2
C0
7C
06
06
86
C6
7C
18
18
00
00
ENDCHAR
STARTCHAR U+0025
ENCODING 37
SWIDTH 8000 0
DWIDTH 8 0
BBX 8 16 0 0
BITMAP
00
00
00
00
C2
C6
0C
18
30
60
C6
86
00
00
00
00
ENDCHAR
STARTCHAR U+0026
ENCODING 38
SWIDTH 8000 0
DWIDTH 8 0
BBX 8 16 0 0
BITMAP
00
00
38
6C
6C
38
76
DC
CC
CC
CC
76
00
00
00
00
ENDCHAR
STARTCHAR U+0027
ENCODING 39
SWIDTH 8000 0
DWIDTH 8 0
BBX 8 16 0 0
BITMAP
00
30
30
30
60
00
00
00
00
00
00
00
00
00
00
00
ENDCHAR
STARTCHAR U+0028
ENCODING 40
SWIDTH 8000 0
DWIDTH 8 0
BBX 8 16 0 0
BITMAP
00
00
0C
18
30
30
30
30
30
30
18
0C
00
00
00
00
ENDCHAR
STARTCHAR U+0029
ENCODING 41
SWIDTH 8000 0
DWIDTH 8 0
BBX 8 16 0 0
BITMAP
00
00
30
18
0C
0C
0C
0C
0C
0C
18
30
00
00
00
00
ENDCHAR
STARTCHAR U+002A
ENCODING 42
SWIDTH 8000 0
DWIDTH 8 0
BBX 8 16 0 0
BITMAP
00
00
00
00
00
66
3C
FF
3C
66
00
00
00
00
00
00
ENDCHAR
STARTCHAR U+002B
ENCODING 43
SWIDTH 8000 0
DWIDTH 8 0
BBX 8 16 0 0
BITMAP
00
00
00
00
00
18
18
7E
18
18
00
00
00
00
00
00
ENDCHAR
STARTCHAR U+002C
ENCODING 44
SWIDTH 8000 0
DWIDTH 8 0
BBX 8 16 0 0
BITMAP
00
00
00
00
00
00
00
00
00
18
18
18
30
00
00
00
ENDCHAR
STARTCHAR U+002D
ENCODING 45
SWIDTH 8000 0
DWIDTH 8 0
BBX 8 16 0 0
BITMAP
00
00
00
00
00
00
00
FE
00
00
00
00
00
00
00
00
ENDCHAR
STARTCHAR U+002E
ENCODING 46
SWIDTH 8000 0
DWIDTH 8 0
BBX 8 16 0 0
BITMAP
00
00
00
00
00
00
00
00
00
00
18
18
00
00
00
00
ENDCHAR
STARTCHAR U+002F
ENCODING 47
SWIDTH 8000 0
DWIDTH 8 0
BBX 8 16 0 0
BITMAP
00
00
00
00
02
06
0C
18
30
60
C0
80
00
00
00
00
ENDCHAR
STARTCHAR U+0030
ENCODING 48
SWIDTH 8000 0
DWIDTH 8 0
BBX 8 16 0 0
BITMAP
00
00
38
6C
C6
C6
D6
D6
C6
C6
6C
38
00
00
00
00
ENDCHAR
STARTCHAR U+0031
ENCODING 49
SWIDTH 8000 0
DWIDTH 8 0
BBX 8 16 0 0
BITMAP
00
00
18
38
78
18
18
18
18
18
18
7E
00
00
00
00
ENDCHAR
STARTCHAR U+0032
ENCODING 50
SWIDTH 8000 0
DWIDTH 8 0
BBX 8 16 0 0
BITMAP
00
00
7C
C6
06
0C
18
30
60
C0
C6
FE
00
00
00
00
ENDCHAR
STARTCHAR U+0033
ENCODING 51
SWIDTH 8000 0
DWIDTH 8 0
BBX 8 16 0 0
BITMAP
00
00
7C
C6
06
06
3C
06
06
06
C6
7C
00
00
00
00
ENDCHAR
STARTCHAR U+0034
ENCODING 52
SWIDTH 8000 0
DWIDTH 8 0
BBX 8 16 0 0
BITMAP
00
00
0C
1C
3C
6C
CC
FE
0C
0C
0C
1E
00
00
00
00
ENDCHAR
STARTCHAR U+0035
ENCODING 53
SWIDTH 8000 0
DWIDTH 8 0
BBX 8 16 0 0
BITMAP
00
00
FE
C0
C0
C0
FC
06
06
06
C6
7C
00
00
00
00
ENDCHAR
STARTCHAR U+0036
ENCODING 54
SWIDTH 8000 0
DWIDTH 8 0
BBX 8 16 0 0
BITMAP
00
00
38
60
C0
C0
FC
C6
C6
C6
C6
7C
00
00
00
00
ENDCHAR
STARTCHAR U+0037
ENCODING 55
SWIDTH 8000 0
DWIDTH 8 0
BBX 8 16 0 0
BITMAP
00
00
FE
C6
06
06
0C
18
30
30
30
30
00
00
00
00
ENDCHAR
STARTCHAR U+0038
ENCODING 56
SWIDTH 8000 0
DWIDTH 8 0
BBX 8 16 0 0
BITMAP
00
00
7C
C6
C6
C6
7C
C6
C6
C6
C6
7C
00
00
00
00
ENDCHAR
STARTCHAR U+0039
ENCODING 57
SWIDTH 8000 0
DWIDTH 8 0
BBX 8 16 0 0
BITMAP
00
00
7C
C6
C6
C6
7E
06
06
06
0C
78
00
00
00
00
ENDCHAR
STARTCHAR U+003A
ENCODING 58
SWIDTH 8000 0
DWIDTH 8 0
BBX 8 16 0 0
BITMAP
00
00
00
00
18
18
00
00
00
18
18
00
00
00
00
00
ENDCHAR
STARTCHAR U+003B
ENCODING 59
SWIDTH 8000 0
DWIDTH 8 0
BBX 8 16 0 0
BITMAP
00
00
00
00
18
18
00
00
00
18
18
30
00
00
00
00
ENDCHAR
STARTCHAR U+003C
ENCODING 60
SWIDTH 8000 0
DWIDTH 8 0
BBX 8 16 0 0
BITMAP
00
00
00
06
0C
18
30
60
30
18
0C
06
00
00
00
00
ENDCHAR
STARTCHAR U+003D
ENCODING 61
SWIDTH 8000 0
DWIDTH 8 0
BBX 8 16 0 0
BITMAP
00
00
00
00
00
7E
00
00
7E
00
00
00
00
00
00
00
ENDCHAR
STARTCHAR U+003E
ENCODING 62
SWIDTH 8000 0
DWIDTH 8 0
BBX 8 16 0 0
BITMAP
00
00
00
60
30
18
0C
06
0C
18
30
60
00
00
00
00
ENDCHAR
STARTCHAR U+003F
ENCODING 63
SWIDTH 8000 0
DWIDTH 8 0
BBX 8 16 0 0
BITMAP
00
00
7C
C6
C6
0C
18
18
18
00
18
18
00
00
00
00
ENDCHAR
STARTCHAR U+0040
ENCODING 64
SWIDTH 8000 0
DWIDTH 8 0
BBX 8 16 0 0
BITMAP
00
00
00
7C
C6
C6
DE
DE
DE
DC
C0
7C
00
00
00
00
ENDCHAR
STARTCHAR U+0041
ENCODING 65
SWIDTH 8000 0
DWIDTH 8 0
BBX 8 16 0 0
BITMAP
00
00
10
38
6C
C6
C6
FE
C6
C6
C6
C6
00
00
00
00
ENDCHAR
STARTCHAR U+0042
ENCODING 66
SWIDTH 8000 0
DWIDTH 8 0
BBX 8 16 0 0
BITMAP
00
00
FC
66
66
66
7C
66
66
66
66
FC
00
00
00
00
ENDCHAR
STARTCHAR U+0043
ENCODING 67
SWIDTH 8000 0
DWIDTH 8 0
BBX 8 16 0 0
BITMAP
00
00
3C
66
C2
C0
C0
C0
C0
C2
66
3C
00
00
00
00
ENDCHAR
STARTCHAR U+0044
ENCODING 68
SWIDTH 8000 0
DWIDTH 8 0
BBX 8 16 0 0
BITMAP
00
00
F8
6C
66
66
66
66
66
66
6C
F8
00
00
00
00
ENDCHAR
STARTCHAR U+0045
ENCODING 69
SWIDTH 8000 0
DWIDTH 8 0
BBX 8 16 0 0
BITMAP
00
00
FE
66
62
68
78
68
60
62
66
FE
00
00
00
00
ENDCHAR
STARTCHAR U+0046
ENCODING 70
SWIDTH 8000 0
DWIDTH 8 0
BBX 8 16 0 0
BITMAP
00
00
FE
66
62
68
78
68
60
60
60
F0
00
00
00
00
ENDCHAR
STARTCHAR U+0047
ENCODING 71
SWIDTH 8000 0
DWIDTH 8 0
BBX 8 16 0 0
BITMAP
00
00
3C
66
C2
C0
C0
DE
C6
C6
66
3A
00
00
00
00
ENDCHAR
STARTCHAR U+0048
ENCODING 72
SWIDTH 8000 0
DWIDTH 8 0
BBX 8 16 0 0
BITMAP
00
00
C6
C6
C6
C6
FE
C6
C6
C6
C6
C6
00
00
00
00
ENDCHAR
STARTCHAR U+0049
ENCODING 73
SWIDTH 8000 0
DWIDTH 8 0
BBX 8 16 0 0
BITMAP
00
00
3C
18
18
18
18
18
18
18
18
3C
00
00
00
00
ENDCHAR
STARTCHAR U+004A
ENCODING 74
SWIDTH 8000 0
DWIDTH 8 0
BBX 8 16 0 0
BITMAP
00
00
1E
0C
0C
0C
0C
0C
CC
CC
CC
78
00
00
00
00
ENDCHAR
STARTCHAR U+004B
ENCODING 75
SWIDTH 8000 0
DWIDTH 8 0
BBX 8 16 0 0
BITMAP
00
00
E6
66
66
6C
78
78
6C
66
66
E6
00
00
00
00
ENDCHAR
STARTCHAR U+004C
ENCODING 76
SWIDTH 8000 0
DWIDTH 8 0
BBX 8 16 0 0
BITMAP
00
00
F0
60
60
60
60
60
60
62
66
FE
00
00
00
00
ENDCHAR
STARTCHAR U+004D
ENCODING 77
SWIDTH 8000 0
DWIDTH 8 0
BBX 8 16 0 0
BITMAP
00
00
C6
EE
FE
FE
D6
C6
C6
C6
C6
C6
00
00
00
00
ENDCHAR
STARTCHAR U+004E
ENCODING 78
SWIDTH 8000 0
DWIDTH 8 0
BBX 8 16 0 0
BITMAP
00
00
C6
E6
F6
FE
DE
CE
C6
C6
C6
C6
00
00
00
00
ENDCHAR
STARTCHAR U+004F
ENCODING 79
SWIDTH 8000 0
DWIDTH 8 0
BBX 8 16 0 0
BITMAP
00
00
7C
C6
C6
C6
C6
C6
C6
C6
C6
7C
00
00
00
00
ENDCHAR
STARTCHAR U+0050
ENCODING 80
SWIDTH 8000 0
DWIDTH 8 0
BBX 8 16 0 0
BITMAP
00
00
FC
66
66
66
7C
60
60
60
60
F0
00
00
00
00
ENDCHAR
STARTCHAR U+0051
ENCODING 81
SWIDTH 8000 0
DWIDTH 8 0
BBX 8 16 0 0
BITMAP
00
00
7C
C6
C6
C6
C6
C6
C6
D6
DE
7C
0C
0E
00
00
ENDCHAR
STARTCHAR U+0052
ENCODING 82
SWIDTH 8000 0
DWIDTH 8 0
BBX 8 16 0 0
BITMAP
00
00
FC
66
66
66
7C
6C
66
66
66
E6
00
00
00
00
ENDCHAR
STARTCHAR U+0053
ENCODING 83
SWIDTH 8000 0
DWIDTH 8 0
BBX 8 16 0 0
BITMAP
00
00
7C
C6
C6
60
38
0C
06
C6
C6
7C
00
00
00
00
ENDCHAR
STARTCHAR U+0054
ENCODING 84
SWIDTH 8000 0
DWIDTH 8 0
BBX 8 16 0 0
BITMAP
00
00
7E
7E
5A
18
18
18
18
18
18
3C
00
00
00
00
ENDCHAR
STARTCHAR U+0055
ENCODING 85
SWIDTH 8000 0
DWIDTH 8 0
BBX 8 16 0 0
BITMAP
00
00
C6
C6
C6
C6
C6
C6
C6
C6
C6
7C
00
00
00
00
ENDCHAR
STARTCHAR U+0056
ENCODING 86
SWIDTH 8000 0
DWIDTH 8 0
BBX 8 16 0 0
BITMAP
00
00
C6
C6
C6
C6
C6
C6
C6
6C
38
10
00
00
00
00
ENDCHAR
STARTCHAR U+0057
ENCODING 87
SWIDTH 8000 0
DWIDTH 8 0
BBX 8 16 0 0
BITMAP
00
00
C6
C6
C6
C6
D6
D6
D6
FE
EE
6C
00
00
00
00
ENDCHAR
STARTCHAR U+0058
ENCODING 88
SWIDTH 8000 0
DWIDTH 8 0
BBX 8 16 0 0
BITMAP
00
00
C6
C6
6C
7C
38
38
7C
6C
C6
C6
00
00
00
00
ENDCHAR
STARTCHAR U+0059
ENCODING 89
SWIDTH 8000 0
DWIDTH 8 0
BBX 8 16 0 0
BITMAP
00
00
66
66
66
66
3C
18
18
18
18
3C
00
00
00
00
ENDCHAR
STARTCHAR U+005A
ENCODING 90
SWIDTH 8000 0
DWIDTH 8 0
BBX 8 16 0 0
BITMAP
00
00
FE
C6
86
0C
18
30
60
C2
C6
FE
00
00
00
00
ENDCHAR
STARTCHAR U+005B
ENCODING 91
SWIDTH 8000 0
DWIDTH 8 0
BBX 8 16 0 0
BITMAP
00
00
3C
30
30
30
30
30
30
30
30
3C
00
00
00
00
ENDCHAR
STARTCHAR U+005C
ENCODING 92
SWIDTH 8000 0
DWIDTH 8 0
BBX 8 16 0 0
BITMAP
00
00
00
80
C0
E0
70
38
1C
0E
06
02
00
00
00
00
ENDCHAR
STARTCHAR U+005D
ENCODING 93
SWIDTH 8000 0
DWIDTH 8 0
BBX 8 16 0 0
BITMAP
00
00
3C
0C
0C
0C
0C
0C
0C
0C
0C
3C
00
00
00
00
ENDCHAR
STARTCHAR U+005E
ENCODING 94
SWIDTH 8000 0
DWIDTH 8 0
BBX 8 16 0 0
BITMAP
10
38
6C
C6
00
00
00
00
00
00
00
00
00
00
00
00
ENDCHAR
STARTCHAR U+005F
ENCODING 95
SWIDTH 8000 0
DWIDTH 8 0
BBX 8 16 0 0
BITMAP
00
00
00
00
00
00
00
00
00
00
00
00
00
FF
00
00
ENDCHAR
STARTCHAR U+0060
ENCODING 96
SWIDTH 8000 0
DWIDTH 8 0
BBX 8 16 0 0
BITMAP
30
30
18
00
00
00
00
00
00
00
00
00
00
00
00
00
ENDCHAR
STARTCHAR U+0061
ENCODING 97
SWIDTH 8000 0
DWIDTH 8 0
BBX 8 16 0 0
BITMAP
00
00
00
00
00
78
0C
7C
CC
CC
CC
76
00
00
00
00
ENDCHAR
STARTCHAR U+0062
ENCODING 98
SWIDTH 8000 0
DWIDTH 8 0
BBX 8 16 0 0
BITMAP
00
00
E0
60
60
78
6C
66
66
66
66
7C
00
00
00
00
ENDCHAR
STARTCHAR U+0063
ENCODING 99
SWIDTH 8000 0
DWIDTH 8 0
BBX 8 16 0 0
BITMAP
00
00
00
00
00
7C
C6
C0
C0
C0
C6
7C
00
00
00
00
ENDCHAR
STARTCHAR U+0064
ENCODING 100
SWIDTH 8000 0
DWIDTH 8 0
BBX 8 16 0 0
BITMAP
00
00
1C
0C
0C
3C
6C
CC
CC
CC
CC
76
00
00
00
00
ENDCHAR
STARTCHAR U+0065
ENCODING 101
SWIDTH 8000 0
DWIDTH 8 0
BBX 8 16 0 0
BITMAP
00
00
00
00
00
7C
C6
FE
C0
C0
C6
7C
00
00
00
00
ENDCHAR
STARTCHAR U+0066
ENCODING 102
SWIDTH 8000 0
DWIDTH 8 0
BBX 8 16 0 0
BITMAP
00
00
38
6C
64
60
F0
60
60
60
60
F0
00
00
00
00
ENDCHAR
STARTCHAR U+0067
ENCODING 103
SWIDTH 8000 0
DWIDTH 8 0
BBX 8 16 0 0
BITMAP
00
00
00
00
00
76
CC
CC
CC
CC
CC
7C
0C
CC
78
00
ENDCHAR
STARTCHAR U+0068
ENCODING 104
SWIDTH 8000 0
DWIDTH 8 0
BBX 8 16 0 0
BITMAP
00
00
E0
60
60
6C
76
66
66
66
66
E6
00
00
00
00
ENDCHAR
STARTCHAR U+0069
ENCODING 105
SWIDTH 8000 0
DWIDTH 8 0
BBX 8 16 0 0
BITMAP
00
00
18
18
00
38
18
18
18
18
18
3C
00
00
00
00
ENDCHAR
STARTCHAR U+006A
ENCODING 106
SWIDTH 8000 0
DWIDTH 8 0
BBX 8 16 0 0
BITMAP
00
00
06
06
00
0E
06
06
06
06
06
06
66
66
3C
00
ENDCHAR
STARTCHAR U+006B
ENCODING 107
SWIDTH 8000 0
DWIDTH 8 0
BBX 8 16 0 0
BITMAP
00
00
E0
60
60
66
6C
78
78
6C
66
E6
00
00
00
00
ENDCHAR
STARTCHAR U+006C
ENCODING 108
SWIDTH 8000 0
DWIDTH 8 0
BBX 8 16 0 0
BITMAP
00
00
38
18
18
18
18
18
18
18
18
3C
00
00
00
00
ENDCHAR
STARTCHAR U+006D
ENCODING 109
SWIDTH 8000 0
DWIDTH 8 0
BBX 8 16 0 0
BITMAP
00
00
00
00
00
EC
FE
D6
D6
D6
D6
C6
00
00
00
00
ENDCHAR
STARTCHAR U+006E
ENCODING 110
SWIDTH 8000 0
DWIDTH 8 0
BBX 8 16 0 0
BITMAP
00
00
00
00
00
DC
66
66
66
66
66
66
00
00
00
00
ENDCHAR
STARTCHAR U+006F
ENCODING 111
SWIDTH 8000 0
DWIDTH 8 0
BBX 8 16 0 0
BITMAP
00
00
00
00
00
7C
C6
C6
C6
C6
C6
7C
00
00
00
00
ENDCHAR
STARTCHAR U+0070
ENCODING 112
SWIDTH 8000 0
DWIDTH 8 0
BBX 8 16 0 0
BITMAP
00
00
00
00
00
DC
66
66
66
66
66
7C
60
60
F0
00
ENDCHAR
STARTCHAR U+0071
ENCODING 113
SWIDTH 8000 0
DWIDTH 8 0
BBX 8 16 0 0
BITMAP
00
00
00
00
00
76
CC
CC
CC
CC
CC
7C
0C
0C
1E
00
ENDCHAR
STARTCHAR U+0072
ENCODING 114
SWIDTH 8000 0
DWIDTH 8 0
BBX 8 16 0 0
BITMAP
00
00
00
00
00
DC
76
66
60
60
60
F0
00
00
00
00
ENDCHAR
STARTCHAR U+0073
ENCODING 115
SWIDTH 8000 0
DWIDTH 8 0
BBX 8 16 0 0
BITMAP
00
00
00
00
00
7C
C6
60
38
0C
C6
7C
00
00
00
00
ENDCHAR
STARTCHAR U+0074
ENCODING 116
SWIDTH 8000 0
DWIDTH 8 0
BBX 8 16 0 0
BITMAP
00
00
10
30
30
FC
30
30
30
30
36
1C
00
00
00
00
ENDCHAR
STARTCHAR U+0075
ENCODING 117
SWIDTH 8000 0
DWIDTH 8 0
BBX 8 16 0 0
BITMAP
00
00
00
00
00
CC
CC
CC
CC
CC
CC
76
00
00
00
00
ENDCHAR
STARTCHAR U+0076
ENCODING 118
SWIDTH 8000 0
DWIDTH 8 0
BBX 8 16 0 0
BITMAP
00
00
00
00
00
66
66
66
66
66
3C
18
00
00
00
00
ENDCHAR
STARTCHAR U+0077
ENCODING 119
SWIDTH 8000 0
DWIDTH 8 0
BBX 8 16 0 0
BITMAP
00
00
00
00
00
C6
C6
D6
D6
D6
FE
6C
00
00
00
00
ENDCHAR
STARTCHAR U+0078
ENCODING 120
SWIDTH 8000 0
DWIDTH 8 0
BBX 8 16 0 0
BITMAP
00
00
00
00
00
C6
6C
38
38
38
6C
C6
00
00
00
00
ENDCHAR
STARTCHAR U+0079
ENCODING 121
SWIDTH 8000 0
DWIDTH 8 0
BBX 8 16 0 0
BITMAP
00
00
00
00
00
C6
C6
C6
C6
C6
C6
7E
06
0C
F8
00
ENDCHAR
STARTCHAR U+007A
ENCODING 122
SWIDTH 8000 0
DWIDTH 8 0
BBX 8 16 0 0
BITMAP
00
00
00
00
00
FE
CC
18
30
60
C6
FE
00
00
00
00
ENDCHAR
STARTCHAR U+007B
ENCODING 123
SWIDTH 8000 0
DWIDTH 8 0
BBX 8 16 0 0
BITMAP
00
00
0E
18
18
18
70
18
18
18
18
0E
00
00
00
00
ENDCHAR
STARTCHAR U+007C
ENCODING 124
SWIDTH 8000 0
DWIDTH 8 0
BBX 8 16 0 0
BITMAP
00
00
18
18
18
18
00
18
18
18
18
18
00
00
00
00
ENDCHAR
STARTCHAR U+007D
ENCODING 125
SWIDTH 8000 0
DWIDTH 8 0
BBX 8 16 0 0
BITMAP
00
00
70
18
18
18
0E
18
18
18
18
70
00
00
00
00
ENDCHAR
STARTCHAR U+007E
ENCODING 126
SWIDTH 8000 0
DWIDTH 8 0
BBX 8 16 0 0
BITMAP
00
00
76
DC
00
00
00
00
00
00
00
00
00
00
00
00
ENDCHAR
STARTCHAR U+2302
ENCODING 8962
SWIDTH 8000 0
DWIDTH 8 0
BBX 8 16 0 0
BITMAP
00
00
00
00
10
38
6C
C6
C6
C6
FE
00
00
00
00
00
ENDCHAR
STARTCHAR U+00C7
ENCODING 199
SWIDTH 8000 0
DWIDTH 8 0
BBX 8 16 0 0
BITMAP
00
00
3E
63
C0
C0
C0
C0
C1
63
3E
18
0C
04
1C
00
ENDCHAR
STARTCHAR U+00FC
ENCODING 252
SWIDTH 8000 0
DWIDTH 8 0
BBX 8 16 0 0
BITMAP
00
00
00
66
66
00
66
66
66
66
66
3B
00
00
00
00
ENDCHAR
STARTCHAR U+00E9
ENCODING 233
SWIDTH 8000 0
DWIDTH 8 0
BBX 8 16 0 0
BITMAP
00
00
06
0C
18
00
3E
63
7F
60
63
3E
00
00
00
00
ENDCHAR
STARTCHAR U+00E2
ENCODING 226
SWIDTH 8000 0
DWIDTH 8 0
BBX 8 16 0 0
BITMAP
00
00
08
1C
36
00
3C
06
3E
66
66
3B
00
00
00
00
ENDCHAR
STARTCHAR U+00E4
ENCODING 228
SWIDTH 8000 0
DWIDTH 8 0
BBX 8 16 0 0
BITMAP
00
00
00
66
66
00
3C
06
3E
66
66
3B
00
00
00
00
ENDCHAR
STARTCHAR U+00E0
ENCODING 224
SWIDTH 8000 0
DWIDTH 8 0
BBX 8 16 0 0
BITMAP
00
00
30
18
0C
00
3C
06
3E
66
66
3B
00
00
00
00
ENDCHAR
STARTCHAR U+00E5
ENCODING 229
SWIDTH 8000 0
DWIDTH 8 0
BBX 8 16 0 0
BITMAP
00
00
1C
36
1C
00
3C
06
3E
66
66
3B
00
00
00
00
ENDCHAR
STARTCHAR U+00E7
ENCODING 231
SWIDTH 8000 0
DWIDTH 8 0
BBX 8 16 0 0
BITMAP
00
00
00
00
00
00
3C
66
60
66
3C
0C
06
3C
00
00
ENDCHAR
STARTCHAR U+00EA
ENCODING 234
SWIDTH 8000 0
DWIDTH 8 0
BBX 8 16 0 0
BITMAP
00
00
08
1C
36
00
3E
63
7F
60
63
3E
00
00
00
00
ENDCHAR
STARTCHAR U+00EB
ENCODING 235
SWIDTH 8000 0
DWIDTH 8 0
BBX 8 16 0 0
BITMAP
00
00
00
66
66
00
3E
63
7F
60
63
3E
00
00
00
00
ENDCHAR
STARTCHAR U+00E8
ENCODING 232
SWIDTH 8000 0
DWIDTH 8 0
BBX 8 16 0 0
BITMAP
00
00
30
18
0C
00
3E
63
7F
60
63
3E
00
00
00
00
ENDCHAR
STARTCHAR U+00EF
ENCODING 239
SWIDTH 8000 0
DWIDTH 8 0
BBX 8 16 0 0
BITMAP
00
00
00
66
66
00
38
18
18
18
18
3C
00
00
00
00
ENDCHAR
STARTCHAR U+00EE
ENCODING 238
SWIDTH 8000 0
DWIDTH 8 0
BBX 8 16 0 0
BITMAP
00
00
18
3C
66
00
38
18
18
18
18
3C
00
00
00
00
ENDCHAR
STARTCHAR U+00EC
ENCODING 236
SWIDTH 8000 0
DWIDTH 8 0
BBX 8 16 0 0
BITMAP
00
00
30
18
0C
00
1C
0C
0C
0C
0C
1E
00
00
00
00
ENDCHAR
STARTCHAR U+00C4
ENCODING 196
SWIDTH 8000 0
DWIDTH 8 0
BBX 8 16 0 0
BITMAP
00
63
63
00
08
1C
36
63
63
7F
63
63
00
00
00
00
ENDCHAR
STARTCHAR U+00C5
ENCODING 197
SWIDTH 8000 0
DWIDTH 8 0
BBX 8 16 0 0
BITMAP
00
1C
36
1C
08
1C
36
63
63
7F
63
63
00
00
00
00
ENDCHAR
STARTCHAR U+00C9
ENCODING 201
SWIDTH 8000 0
DWIDTH 8 0
BBX 8 16 0 0
BITMAP
00
0C
18
30
00
7F
33
30
3E
30
33
7F
00
00
00
00
ENDCHAR
STARTCHAR U+00E6
ENCODING 230
SWIDTH 8000 0
DWIDTH 8 0
BBX 8 16 0 0
BITMAP
00
00
00
00
00
6E
BB
1B
FF
D8
D9
76
00
00
00
00
ENDCHAR
STARTCHAR U+00C6
ENCODING 198
SWIDTH 8000 0
DWIDTH 8 0
BBX 8 16 0 0
BITMAP
00
00
00
3F
6C
CC
CC
FF
CC
CC
CC
CF
00
00
00
00
ENDCHAR
STARTCHAR U+00F4
ENCODING 244
SWIDTH 8000 0
DWIDTH 8 0
BBX 8 16 0 0
BITMAP
00
00
08
1C
36
00
3E
63
63
63
63
3E
00
00
00
00
ENDCHAR
STARTCHAR U+00F6
ENCODING 246
SWIDTH 8000 0
DWIDTH 8 0
BBX 8 16 0 0
BITMAP
00
00
00
63
63
00
3E
63
63
63
63
3E
00
00
00
00
ENDCHAR
STARTCHAR U+00F2
ENCODING 242
SWIDTH 8000 0
DWIDTH 8 0
BBX 8 16 0 0
BITMAP
00
00
30
18
0C
00
3E
63
63
63
63
3E
00
00
00
00
ENDCHAR
STARTCHAR U+00FB
ENCODING 251
SWIDTH 8000 0
DWIDTH 8 0
BBX 8 16 0 0
BITMAP
00
00
30
78
CC
00
CC
CC
CC
CC
CC
76
00
00
00
00
ENDCHAR
STARTCHAR U+00F9
ENCODING 249
SWIDTH 8000 0
DWIDTH 8 0
BBX 8 16 0 0
BITMAP
00
00
60
30
18
00
CC
CC
CC
CC
CC
76
00
00
00
00
ENDCHAR
STARTCHAR U+00FF
ENCODING 255
SWIDTH 8000 0
DWIDTH 8 0
BBX 8 16 0 0
BITMAP
00
00
00
C6
C6
00
C6
C6
C6
C6
7E
06
0C
78
00
00
ENDCHAR
STARTCHAR U+00D6
ENCODING 214
SWIDTH 8000 0
DWIDTH 8 0
BBX 8 16 0 0
BITMAP
00
C6
C6
00
38
6C
C6
C6
C6
C6
6C
38
00
00
00
00
ENDCHAR
STARTCHAR U+00DC
ENCODING 220
SWIDTH 8000 0
DWIDTH 8 0
BBX 8 16 0 0
BITMAP
00
00
C6
C6
00
C6
C6
C6
C6
C6
C6
7C
00
00
00
00
ENDCHAR
STARTCHAR U+00A2
ENCODING 162
SWIDTH 8000 0
DWIDTH 8 0
BBX 8 16 0 0
BITMAP
00
00
18
18
7E
DA
D8
D8
DA
7E
18
18
00
00
00
00
ENDCHAR
STARTCHAR U+00A3
ENCODING 163
SWIDTH 8000 0
DWIDTH 8 0
BBX 8 16 0 0
BITMAP
00
00
38
6C
64
60
F8
60
60
60
E6
FC
00
00
00
00
ENDCHAR
STARTCHAR U+00A5
ENCODING 165
SWIDTH 8000 0
DWIDTH 8 0
BBX 8 16 0 0
BITMAP
00
00
C3
66
3C
18
7E
18
7E
18
18
00
00
00
00
00
ENDCHAR
STARTCHAR U+20A7
ENCODING 8359
SWIDTH 8000 0
DWIDTH 8 0
BBX 8 16 0 0
BITMAP
00
00
FC
66
66
7C
60
64
6F
64
64
F7
00
00
00
00
ENDCHAR
STARTCHAR U+0192
ENCODING 402
SWIDTH 8000 0
DWIDTH 8 0
BBX 8 16 0 0
BITMAP
00
00
0E
1A
18
18
18
7E
18
18
18
18
58
70
00
00
ENDCHAR
STARTCHAR U+00E1
ENCODING 225
SWIDTH 8000 0
DWIDTH 8 0
BBX 8 16 0 0
BITMAP
00
00
18
30
60
00
78
0C
7C
CC
CC
76
00
00
00
00
ENDCHAR
STARTCHAR U+00ED
ENCODING 237
SWIDTH 8000 0
DWIDTH 8 0
BBX 8 16 0 0
BITMAP
00
00
0C
18
30
00
38
18
18
18
18
3C
00
00
00
00
ENDCHAR
STARTCHAR U+00F3
ENCODING 243
SWIDTH 8000 0
DWIDTH 8 0
BBX 8 16 0 0
BITMAP
00
00
18
30
60
00
7C
C6
C6
C6
C6
7C
00
00
00
00
ENDCHAR
STARTCHAR U+00FA
ENCODING 250
SWIDTH 8000 0
DWIDTH 8 0
BBX 8 16 0 0
BITMAP
00
00
18
30
60
00
CC
CC
CC
CC
CC
76
00
00
00
00
ENDCHAR
STARTCHAR U+00F1
ENCODING 241
SWIDTH 8000 0
DWIDTH 8 0
BBX 8 16 0 0
BITMAP
00
00
00
76
DC
00
DC
66
66
66
66
66
00
00
00
00
ENDCHAR
STARTCHAR U+00D1
ENCODING 209
SWIDTH 8000 0
DWIDTH 8 0
BBX 8 16 0 0
BITMAP
00
76
DC
00
C6
E6
F6
FE
DE
CE
C6
C6
00
00
00
00
ENDCHAR
STARTCHAR U+00AA
ENCODING 170
SWIDTH 8000 0
DWIDTH 8 0
BBX 8 16 0 0
BITMAP
00
00
00
70
90
90
78
00
F8
00
00
00
00
00
00
00
ENDCHAR
STARTCHAR U+00BA
ENCODING 186
SWIDTH 8000 0
DWIDTH 8 0
BBX 8 16 0 0
BITMAP
00
00
00
60
90
90
60
00
F0
00
00
00
00
00
00
00
ENDCHAR
STARTCHAR U+00BF
ENCODING 191
SWIDTH 8000 0
DWIDTH 8 0
BBX 8 16 0 0
BITMAP
00
00
00
00
30
30
00
30
30
60
C6
C6
7C
00
00
00
ENDCHAR
STARTCHAR U+2310
ENCODING 8976
SWIDTH 8000 0
DWIDTH 8 0
BBX 8 16 0 0
BITMAP
00
00
00
00
00
00
FE
C0
C0
C0
C0
C0
00
00
00
00
ENDCHAR
STARTCHAR U+00AC
ENCODING 172
SWIDTH 8000 0
DWIDTH 8 0
BBX 8 16 0 0
BITMAP
00
00
00
00
00
00
7F
03
03
03
03
03
00
00
00
00
ENDCHAR
STARTCHAR U+00BD
ENCODING 189
SWIDTH 8000 0
DWIDTH 8 0
BBX 8 16 0 0
BITMAP
00
00
40
40
40
44
48
10
2C
52
82
04
08
1E
00
00
ENDCHAR
STARTCHAR U+00BC
ENCODING 188
SWIDTH 8000 0
DWIDTH 8 0
BBX 8 16 0 0
BITMAP
00
00
40
40
40
44
48
10
24
4C
94
24
3E
04
00
00
ENDCHAR
STARTCHAR U+00A1
ENCODING 161
SWIDTH 8000 0
DWIDTH 8 0
BBX 8 16 0 0
BITMAP
00
00
00
18
18
00
18
18
3C
3C
3C
18
00
00
00
00
ENDCHAR
STARTCHAR U+00AB
ENCODING 171
SWIDTH 8000 0
DWIDTH 8 0
BBX 8 16 0 0
BITMAP
00
00
00
00
00
33
66
CC
66
33
00
00
00
00
00
00
ENDCHAR
STARTCHAR U+00BB
ENCODING 187
SWIDTH 8000 0
DWIDTH 8 0
BBX 8 16 0 0
BITMAP
00
00
00
00
00
CC
66
33
66
CC
00
00
00
00
00
00
ENDCHAR
STARTCHAR U+2591
ENCODING 9617
SWIDTH 8000 0
DWIDTH 8 0
BBX 8 16 0 0
BITMAP
11
44
11
44
11
44
11
44
11
44
11
44
11
44
11
44
ENDCHAR
STARTCHAR U+2592
ENCODING 9618
SWIDTH 8000 0
DWIDTH 8 0
BBX 8 16 0 0
BITMAP
2A
55
2A
55
2A
55
2A
55
2A
55
2A
55
2A
55
2A
55
ENDCHAR
STARTCHAR U+2593
ENCODING 9619
SWIDTH 8000 0
DWIDTH 8 0
BBX 8 16 0 0
BITMAP
55
7F
2A
7F
55
7F
2A
7F
55
7F
2A
7F
55
7F
2A
7F
ENDCHAR
STARTCHAR U+2502
ENCODING 9474
SWIDTH 8000 0
DWIDTH 8 0
BBX 8 16 0 0
BITMAP
18
18
18
18
18
18
18
18
18
18
18
18
18
18
18
18
ENDCHAR
STARTCHAR U+2524
ENCODING 9508
SWIDTH 8000 0
DWIDTH 8 0
BBX 8 16 0 0
BITMAP
18
18
18
18
18
18
18
F8
18
18
18
18
18
18
18
18
ENDCHAR
STARTCHAR U+2561
ENCODING 9569
SWIDTH 8000 0
DWIDTH 8 0
BBX 8 16 0 0
BITMAP
18
18
18
18
18
18
F8
18
F8
18
18
18
18
18
18
18
ENDCHAR
STARTCHAR U+2562
ENCODING 9570
SWIDTH 8000 0
DWIDTH 8 0
BBX 8 16 0 0
BITMAP
36
36
36
36
36
36
36
F6
36
36
36
36
36
36
36
36
ENDCHAR
STARTCHAR U+2556
ENCODING 9558
SWIDTH 8000 0
DWIDTH 8 0
BBX 8 16 0 0
BITMAP
00
00
00
00
00
00
00
FE
36
36
36
36
36
36
36
36
ENDCHAR
STARTCHAR U+2555
ENCODING 9557
SWIDTH 8000 0
DWIDTH 8 0
BBX 8 16 0 0
BITMAP
00
00
00
00
00
00
F8
18
F8
18
18
18
18
18
18
18
ENDCHAR
STARTCHAR U+2563
ENCODING 9571
SWIDTH 8000 0
DWIDTH 8 0
BBX 8 16 0 0
BITMAP
36
36
36
36
36
36
F6
16
F6
36
36
36
36
36
36
36
ENDCHAR
STARTCHAR U+2551
ENCODING 9553
SWIDTH 8000 0
DWIDTH 8 0
BBX 8 16 0 0
BITMAP
36
36
36
36
36
36
36
36
36
36
36
36
36
36
36
36
ENDCHAR
STARTCHAR U+2557
ENCODING 9559
SWIDTH 8000 0
DWIDTH 8 0
BBX 8 16 0 0
BITMAP
00
00
00
00
00
00
FE
06
F6
36
36
36
36
36
36
36
ENDCHAR
STARTCHAR U+255D
ENCODING 9565
SWIDTH 8000 0
DWIDTH 8 0
BBX 8 16 0 0
BITMAP
36
36
36
36
36
36
F6
06
FE
00
00
00
00
00
00
00
ENDCHAR
STARTCHAR U+255C
ENCODING 9564
SWIDTH 8000 0
DWIDTH 8 0
BBX 8 16 0 0
BITMAP
36
36
36
36
36
36
36
FE
00
00
00
00
00
00
00
00
ENDCHAR
STARTCHAR U+255B
ENCODING 9563
SWIDTH 8000 0
DWIDTH 8 0
BBX 8 16 0 0
BITMAP
18
18
18
18
18
18
F8
18
F8
00
00
00
00
00
00
00
ENDCHAR
STARTCHAR U+2510
ENCODING 9488
SWIDTH 8000 0
DWIDTH 8 0
BBX 8 16 0 0
BITMAP
00
00
00
00
00
00
00
F8
18
18
18
18
18
18
18
18
ENDCHAR
STARTCHAR U+2514
ENCODING 9492
SWIDTH 8000 0
DWIDTH 8 0
BBX 8 16 0 0
BITMAP
18
18
18
18
18
18
18
1F
00
00
00
00
00
00
00
00
ENDCHAR
STARTCHAR U+2534
ENCODING 9524
SWIDTH 8000 0
DWIDTH 8 0
BBX 8 16 0 0
BITMAP
18
18
18
18
18
18
18
FF
00
00
00
00
00
00
00
00
ENDCHAR
STARTCHAR U+252C
ENCODING 9516
SWIDTH 8000 0
DWIDTH 8 0
BBX 8 16 0 0
BITMAP
00
00
00
00
00
00
00
FF
18
18
18
18
18
18
18
18
ENDCHAR
STARTCHAR U+251C
ENCODING 9500
SWIDTH 8000 0
DWIDTH 8 0
BBX 8 16 0 0
BITMAP
18
18
18
18
18
18
18
1F
18
18
18
18
18
18
18
18
ENDCHAR
STARTCHAR U+2500
ENCODING 9472
SWIDTH 8000 0
DWIDTH 8 0
BBX 8 16 0 0
BITMAP
00
00
00
00
00
00
00
FF
00
00
00
00
00
00
00
00
ENDCHAR
STARTCHAR U+253C
ENCODING 9532
SWIDTH 8000 0
DWIDTH 8 0
BBX 8 16 0 0
BITMAP
18
18
18
18
18
18
18
FF
18
18
18
18
18
18
18
18
ENDCHAR
STARTCHAR U+255E
ENCODING 9566
SWIDTH 8000 0
DWIDTH 8 0
BBX 8 16 0 0
BITMAP
18
18
18
18
18
18
1F
18
1F
18
18
18
18
18
18
18
ENDCHAR
STARTCHAR U+255F
ENCODING 9567
SWIDTH 8000 0
DWIDTH 8 0
BBX 8 16 0 0
BITMAP
36
36
36
36
36
36
36
37
36
36
36
36
36
36
36
36
ENDCHAR
STARTCHAR U+255A
ENCODING 9562
SWIDTH 8000 0
DWIDTH 8 0
BBX 8 16 0 0
BITMAP
36
36
36
36
36
36
37
30
3F
00
00
00
00
00
00
00
ENDCHAR
STARTCHAR U+2554
ENCODING 9556
SWIDTH 8000 0
DWIDTH 8 0
BBX 8 16 0 0
BITMAP
00
00
00
00
00
00
3F
30
37
36
36
36
36
36
36
36
ENDCHAR
STARTCHAR U+2569
ENCODING 9577
SWIDTH 8000 0
DWIDTH 8 0
BBX 8 16 0 0
BITMAP
36
36
36
36
36
36
F7
00
FF
00
00
00
00
00
00
00
ENDCHAR
STARTCHAR U+2566
ENCODING 9574
SWIDTH 8000 0
DWIDTH 8 0
BBX 8 16 0 0
BITMAP
00
00
00
00
00
00
FF
00
F7
36
36
36
36
36
36
36
ENDCHAR
STARTCHAR U+2560
ENCODING 9568
SWIDTH 8000 0
DWIDTH 8 0
BBX 8 16 0 0
BITMAP
36
36
36
36
36
36
37
30
37
36
36
36
36
36
36
36
ENDCHAR
STARTCHAR U+2550
ENCODING 9552
SWIDTH 8000 0
DWIDTH 8 0
BBX 8 16 0 0
BITMAP
00
00
00
00
00
00
FF
00
FF
00
00
00
00
00
00
00
ENDCHAR
STARTCHAR U+256C
ENCODING 9580
SWIDTH 8000 0
DWIDTH 8 0
BBX 8 16 0 0
BITMAP
36
36
36
36
36
36
F7
00
F7
36
36
36
36
36
36
36
ENDCHAR
STARTCHAR U+2567
ENCODING 9575
SWIDTH 8000 0
DWIDTH 8 0
BBX 8 16 0 0
BITMAP
18
18
18
18
18
18
FF
00
FF
00
00
00
00
00
00
00
ENDCHAR
STARTCHAR U+2568
ENCODING 9576
SWIDTH 8000 0
DWIDTH 8 0
BBX 8 16 0 0
BITMAP
36
36
36
36
36
36
36
FF
00
00
00
00
00
00
00
00
ENDCHAR
STARTCHAR U+2564
ENCODING 9572
SWIDTH 8000 0
DWIDTH 8 0
BBX 8 16 0 0
BITMAP
00
00
00
00
00
00
FF
00
FF
18
18
18
18
18
18
18
ENDCHAR
STARTCHAR U+2565
ENCODING 9573
SWIDTH 8000 0
DWIDTH 8 0
BBX 8 16 0 0
BITMAP
00
00
00
00
00
00
00
FF
36
36
36
36
36
36
36
36
ENDCHAR
STARTCHAR U+2559
ENCODING 9561
SWIDTH 8000 0
DWIDTH 8 0
BBX 8 16 0 0
BITMAP
36
36
36
36
36
36
36
3F
00
00
00
00
00
00
00
00
ENDCHAR
STARTCHAR U+2558
ENCODING 9560
SWIDTH 8000 0
DWIDTH 8 0
BBX 8 16 0 0
BITMAP
18
18
18
18
18
18
1F
18
1F
00
00
00
00
00
00
00
ENDCHAR
STARTCHAR U+2552
ENCODING 9554
SWIDTH 8000 0
DWIDTH 8 0
BBX 8 16 0 0
BITMAP
00
00
00
00
00
00
1F
18
1F
18
18
18
18
18
18
18
ENDCHAR
STARTCHAR U+2553
ENCODING 9555
SWIDTH 8000 0
DWIDTH 8 0
BBX 8 16 0 0
BITMAP
00
00
00
00
00
00
00
3F
36
36
36
36
36
36
36
36
ENDCHAR
STARTCHAR U+256B
ENCODING 9579
SWIDTH 8000 0
DWIDTH 8 0
BBX 8 16 0 0
BITMAP
36
36
36
36
36
36
36
FF
36
36
36
36
36
36
36
36
ENDCHAR
STARTCHAR U+256A
ENCODING 9578
SWIDTH 8000 0
DWIDTH 8 0
BBX 8 16 0 0
BITMAP
18
18
18
18
18
18
FF
18
FF
18
18
18
18
18
18
18
ENDCHAR
STARTCHAR U+2518
ENCODING 9496
SWIDTH 8000 0
DWIDTH 8 0
BBX 8 16 0 0
BITMAP
18
18
18
18
18
18
18
F8
00
00
00
00
00
00
00
00
ENDCHAR
STARTCHAR U+250C
ENCODING 9484
SWIDTH 8000 0
DWIDTH 8 0
BBX 8 16 0 0
BITMAP
00
00
00
00
00
00
00
1F
18
18
18
18
18
18
18
18
ENDCHAR
STARTCHAR U+2588
ENCODING 9608
SWIDTH 8000 0
DWIDTH 8 0
BBX 8 16 0 0
BITMAP
FF
FF
FF
FF
FF
FF
FF
FF
FF
FF
FF
FF
FF
FF
FF
FF
ENDCHAR
STARTCHAR U+2584
ENCODING 9604
SWIDTH 8000 0
DWIDTH 8 0
BBX 8 16 0 0
BITMAP
00
00
00
00
00
00
00
00
FF
FF
FF
FF
FF
FF
FF
FF
ENDCHAR
STARTCHAR U+258C
ENCODING 9612
SWIDTH 8000 0
DWIDTH 8 0
BBX 8 16 0 0
BITMAP
F0
F0
F0
F0
F0
F0
F0
F0
F0
F0
F0
F0
F0
F0
F0
F0
ENDCHAR
STARTCHAR U+2590
ENCODING 9616
SWIDTH 8000 0
DWIDTH 8 0
BBX 8 16 0 0
BITMAP
0F
0F
0F
0F
0F
0F
0F
0F
0F
0F
0F
0F
0F
0F
0F
0F
ENDCHAR
STARTCHAR U+2580
ENCODING 9600
SWIDTH 8000 0
DWIDTH 8 0
BBX 8 16 0 0
BITMAP
FF
FF
FF
FF
FF
FF
FF
FF
00
00
00
00
00
00
00
00
ENDCHAR
STARTCHAR U+03B1
ENCODING 945
SWIDTH 8000 0
DWIDTH 8 0
BBX 8 16 0 0
BITMAP
00
00
00
00
00
79
CF
C6
C6
CF
79
00
00
00
00
00
ENDCHAR
STARTCHAR U+00DF
ENCODING 223
SWIDTH 8000 0
DWIDTH 8 0
BBX 8 16 0 0
BITMAP
00
00
1C
36
66
7C
66
66
66
7C
60
60
00
00
00
00
ENDCHAR
STARTCHAR U+0393
ENCODING 915
SWIDTH 8000 0
DWIDTH 8 0
BBX 8 16 0 0
BITMAP
00
00
7E
32
30
30
30
30
30
30
78
00
00
00
00
00
ENDCHAR
STARTCHAR U+03C0
ENCODING 960
SWIDTH 8000 0
DWIDTH 8 0
BBX 8 16 0 0
BITMAP
00
00
00
00
FE
6C
6C
6C
6C
6C
00
00
00
00
00
00
ENDCHAR
STARTCHAR U+03A3
ENCODING 931
SWIDTH 8000 0
DWIDTH 8 0
BBX 8 16 0 0
BITMAP
00
00
FE
C2
60
30
18
30
60
C2
FE
00
00
00
00
00
ENDCHAR
STARTCHAR U+03C3
ENCODING 963
SWIDTH 8000 0
DWIDTH 8 0
BBX 8 16 0 0
BITMAP
00
00
1E
38
68
CC
CC
CC
CC
CC
78
00
00
00
00
00
ENDCHAR
STARTCHAR U+00B5
ENCODING 181
SWIDTH 8000 0
DWIDTH 8 0
BBX 8 16 0 0
BITMAP
00
00
00
66
66
66
66
66
66
7C
60
60
C0
80
00
00
ENDCHAR
STARTCHAR U+03C4
ENCODING 964
SWIDTH 8000 0
DWIDTH 8 0
BBX 8 16 0 0
BITMAP
00
00
00
7E
1A
18
18
18
18
0C
00
00
00
00
00
00
ENDCHAR
STARTCHAR U+03A6
ENCODING 934
SWIDTH 8000 0
DWIDTH 8 0
BBX 8 16 0 0
BITMAP
00
00
7C
10
7C
D6
D6
D6
7C
10
7C
00
00
00
00
00
ENDCHAR
STARTCHAR U+0398
ENCODING 920
SWIDTH 8000 0
DWIDTH 8 0
BBX 8 16 0 0
BITMAP
00
00
3C
66
66
66
7E
66
66
66
3C
00
00
00
00
00
ENDCHAR
STARTCHAR U+03A9
ENCODING 937
SWIDTH 8000 0
DWIDTH 8 0
BBX 8 16 0 0
BITMAP
00
00
3C
42
C3
C3
C3
42
24
A5
E7
00
00
00
00
00
ENDCHAR
STARTCHAR U+03B4
ENCODING 948
SWIDTH 8000 0
DWIDTH 8 0
BBX 8 16 0 0
BITMAP
00
00
1C
26
20
10
1C
26
66
66
66
3C
00
00
00
00
ENDCHAR
STARTCHAR U+221E
ENCODING 8734
SWIDTH 8000 0
DWIDTH 8 0
BBX 8 16 0 0
BITMAP
00
00
00
00
6C
92
92
92
6C
00
00
00
00
00
00
00
ENDCHAR
STARTCHAR U+03C6
ENCODING 966
SWIDTH 8000 0
DWIDTH 8 0
BBX 8 16 0 0
BITMAP
00
00
18
18
7E
DB
DB
DB
DB
7E
18
18
00
00
00
00
ENDCHAR
STARTCHAR U+03B5
ENCODING 949
SWIDTH 8000 0
DWIDTH 8 0
BBX 8 16 0 0
BITMAP
00
00
3E
60
C0
C0
FE
C0
C0
60
3E
00
00
00
00
00
ENDCHAR
STARTCHAR U+2229
ENCODING 8745
SWIDTH 8000 0
DWIDTH 8 0
BBX 8 16 0 0
BITMAP
00
00
3C
66
C3
C3
C3
C3
C3
C3
C3
00
00
00
00
00
ENDCHAR
STARTCHAR U+2261
ENCODING 8801
SWIDTH 8000 0
DWIDTH 8 0
BBX 8 16 0 0
BITMAP
00
00
7E
00
00
00
7E
00
00
00
7E
00
00
00
00
00
ENDCHAR
STARTCHAR U+00B1
ENCODING 177
SWIDTH 8000 0
DWIDTH 8 0
BBX 8 16 0 0
BITMAP
00
00
10
10
10
FE
10
10
10
00
FE
00
00
00
00
00
ENDCHAR
STARTCHAR U+2265
ENCODING 8805
SWIDTH 8000 0
DWIDTH 8 0
BBX 8 16 0 0
BITMAP
00
00
80
60
18
06
18
60
80
00
FE
00
00
00
00
00
ENDCHAR
STARTCHAR U+2264
ENCODING 8804
SWIDTH 8000 0
DWIDTH 8 0
BBX 8 16 0 0
BITMAP
00
00
06
18
60
80
60
18
06
00
FE
00
00
00
00
00
ENDCHAR
STARTCHAR U+2320
ENCODING 8992
SWIDTH 8000 0
DWIDTH 8 0
BBX 8 16 0 0
BITMAP
00
00
00
0E
1B
18
18
18
18
18
18
18
18
18
18
18
ENDCHAR
STARTCHAR U+2321
ENCODING 8993
SWIDTH 8000 0
DWIDTH 8 0
BBX 8 16 0 0
BITMAP
18
18
18
18
18
18
18
18
18
18
18
D8
70
00
00
00
ENDCHAR
STARTCHAR U+00F7
ENCODING 247
SWIDTH 8000 0
DWIDTH 8 0
BBX 8 16 0 0
BITMAP
00
00
00
00
18
18
00
7E
00
18
18
00
00
00
00
00
ENDCHAR
STARTCHAR U+2248
ENCODING 8776
SWIDTH 8000 0
DWIDTH 8 0
BBX 8 16 0 0
BITMAP
00
00
00
00
00
60
92
0C
60
92
0C
00
00
00
00
00
ENDCHAR
STARTCHAR U+00B0
ENCODING 176
SWIDTH 8000 0
DWIDTH 8 0
BBX 8 16 0 0
BITMAP
00
38
44
44
44
38
00
00
00
00
00
00
00
00
00
00
ENDCHAR
STARTCHAR U+2219
ENCODING 8729
SWIDTH 8000 0
DWIDTH 8 0
BBX 8 16 0 0
BITMAP
00
00
00
00
00
00
00
18
18
00
00
00
00
00
00
00
ENDCHAR
STARTCHAR U+00B7
ENCODING 183
SWIDTH 8000 0
DWIDTH 8 0
BBX 8 16 0 0
BITMAP
00
00
00
00
00
00
00
00
18
00
00
00
00
00
00
00
ENDCHAR
STARTCHAR U+221A
ENCODING 8730
SWIDTH 8000 0
DWIDTH 8 0
BBX 8 16 0 0
BITMAP
00
00
1E
18
18
18
18
18
18
58
38
18
08
00
00
00
ENDCHAR
STARTCHAR U+207F
ENCODING 8319
SWIDTH 8000 0
DWIDTH 8 0
BBX 8 16 0 0
BITMAP
00
00
B0
48
48
48
48
00
00
00
00
00
00
00
00
00
ENDCHAR
STARTCHAR U+00B2
ENCODING 178
SWIDTH 8000 0
DWIDTH 8 0
BBX 8 16 0 0
BITMAP
00
00
30
48
08
10
20
78
00
00
00
00
00
00
00
00
ENDCHAR
STARTCHAR U+25A0
ENCODING 9632
SWIDTH 8000 0
DWIDTH 8 0
BBX 8 16 0 0
BITMAP
00
00
00
7E
7E
7E
7E
7E
7E
7E
7E
00
00
00
00
00
ENDCHAR
STARTCHAR U+00A0
ENCODING 160
SWIDTH 8000 0
DWIDTH 8 0
BBX 8 16 0 0
BITMAP
00
00
00
00
00
00
00
00
00
00
00
00
00
00
00
00
ENDCHAR
STARTCHAR U+F600
ENCODING 62976
SWIDTH 16000 0
DWIDTH 16 0
BBX 16 16 0 0
BITMAP
0000
0000
0000
0000
0000
0000
0000
0000
0000
0000
0000
0000
0000
0000
0000
0000
ENDCHAR
STARTCHAR U+F601
ENCODING 62977
SWIDTH 16000 0
DWIDTH 16 0
BBX 16 16 0 0
BITMAP
0000
0000
0000
3F80
0180
0180
0300
0600
0C00
3000
0000
0000
0000
0000
0000
0000
ENDCHAR
STARTCHAR U+F602
ENCODING 62978
SWIDTH 16000 0
DWIDTH 16 0
BBX 16 16 0 0
BITMAP
0000
0000
0000
7F80
0D80
0D80
1B00
1B00
3600
4800
0000
0000
0000
0000
0000
0000
ENDCHAR
STARTCHAR U+F603
ENCODING 62979
SWIDTH 16000 0
DWIDTH 16 0
BBX 16 16 0 0
BITMAP
0000
0000
0000
7000
3000
3000
3000
3000
3000
1FC0
0000
0000
0000
0000
0000
0000
ENDCHAR
STARTCHAR U+F604
ENCODING 62980
SWIDTH 16000 0
DWIDTH 16 0
BBX 16 16 0 0
BITMAP
0000
0000
0000
7F00
3000
3000
3000
3000
3000
1F80
0000
0000
0000
0000
0000
0000
ENDCHAR
STARTCHAR U+F605
ENCODING 62981
SWIDTH 16000 0
DWIDTH 16 0
BBX 16 16 0 0
BITMAP
0000
0000
0000
7F80
3600
3600
3600
3600
3600
1BC0
0000
0000
0000
0000
0000
0000
ENDCHAR
STARTCHAR U+F606
ENCODING 62982
SWIDTH 16000 0
DWIDTH 16 0
BBX 16 16 0 0
BITMAP
0000
0000
0000
3F80
0180
0180
3F80
3000
3000
1FC0
0000
0000
0000
0000
0000
0000
ENDCHAR
STARTCHAR U+F607
ENCODING 62983
SWIDTH 16000 0
DWIDTH 16 0
BBX 16 16 0 0
BITMAP
0000
0000
0000
7F80
3180
3180
3180
3180
3180
3F80
0000
0000
0000
0000
0000
0000
ENDCHAR
STARTCHAR U+F608
ENCODING 62984
SWIDTH 16000 0
DWIDTH 16 0
BBX 16 16 0 0
BITMAP
0000
0000
0000
0380
7180
3180
3F80
3180
3180
3F80
0000
0000
0000
0000
0000
0000
ENDCHAR
STARTCHAR U+F609
ENCODING 62985
SWIDTH 16000 0
DWIDTH 16 0
BBX 16 16 0 0
BITMAP
0000
0000
0000
0380
ED80
6D80
7F80
6D80
6D80
7F80
0000
0000
0000
0000
0000
0000
ENDCHAR
STARTCHAR U+F60A
ENCODING 62986
SWIDTH 16000 0
DWIDTH 16 0
BBX 16 16 0 0
BITMAP
0000
0000
0E00
0600
0600
0600
0E00
0B00
1980
60C0
0000
0000
0000
0000
0000
0000
ENDCHAR
STARTCHAR U+F60B
ENCODING 62987
SWIDTH 16000 0
DWIDTH 16 0
BBX 16 16 0 0
BITMAP
0000
0000
0000
3300
3300
3300
3300
2D00
6D80
CCC0
0000
0000
0000
0000
0000
0000
ENDCHAR
STARTCHAR U+F60C
ENCODING 62988
SWIDTH 16000 0
DWIDTH 16 0
BBX 16 16 0 0
BITMAP
0000
0000
0000
1E00
3300
6180
6180
6180
3300
1E00
0000
0000
0000
0000
0000
0000
ENDCHAR
STARTCHAR U+F60D
ENCODING 62989
SWIDTH 16000 0
DWIDTH 16 0
BBX 16 16 0 0
BITMAP
0000
0000
0000
7F00
0300
0300
0600
0C00
1B00
6180
0000
0000
0000
0000
0000
0000
ENDCHAR
STARTCHAR U+F60E
ENCODING 62990
SWIDTH 16000 0
DWIDTH 16 0
BBX 16 16 0 0
BITMAP
0000
0000
0000
7F80
0D80
0D80
1B00
3F00
6D80
D8C0
0000
0000
0000
0000
0000
0000
ENDCHAR
STARTCHAR U+F60F
ENCODING 62991
SWIDTH 16000 0
DWIDTH 16 0
BBX 16 16 0 0
BITMAP
0000
0000
1E00
0000
7F00
0300
0600
0E00
1B00
6180
0000
0000
0000
0000
0000
0000
ENDCHAR
STARTCHAR U+F610
ENCODING 62992
SWIDTH 16000 0
DWIDTH 16 0
BBX 16 16 0 0
BITMAP
0000
0000
0000
7F80
0180
7F80
0300
0600
0C00
7000
0000
0000
0000
0000
0000
0000
ENDCHAR
STARTCHAR U+F611
ENCODING 62993
SWIDTH 16000 0
DWIDTH 16 0
BBX 16 16 0 0
BITMAP
0000
0000
0000
7F80
3000
3000
3F80
3000
3000
1FC0
0000
0000
0000
0000
0000
0000
ENDCHAR
STARTCHAR U+F612
ENCODING 62994
SWIDTH 16000 0
DWIDTH 16 0
BBX 16 16 0 0
BITMAP
0000
0000
0000
FFC0
3300
3300
3300
3300
3300
FFC0
0000
0000
0000
0000
0000
0000
ENDCHAR
STARTCHAR U+F613
ENCODING 62995
SWIDTH 16000 0
DWIDTH 16 0
BBX 16 16 0 0
BITMAP
0000
0000
0E00
7FC0
0000
1F00
3180
3180
3180
1F00
0000
0000
0000
0000
0000
0000
ENDCHAR
STARTCHAR U+F614
ENCODING 62996
SWIDTH 16000 0
DWIDTH 16 0
BBX 16 16 0 0
BITMAP
0000
0000
0000
0000
0000
0000
0000
0000
0000
0000
0000
0000
0000
0000
0000
0000
ENDCHAR
STARTCHAR U+F615
ENCODING 62997
SWIDTH 16000 0
DWIDTH 16 0
BBX 16 16 0 0
BITMAP
0000
0000
1FF0
0030
0030
0030
0030
0020
0000
0000
0000
0000
0000
0000
0000
0000
ENDCHAR
STARTCHAR U+F616
ENCODING 62998
SWIDTH 16000 0
DWIDTH 16 0
BBX 16 16 0 0
BITMAP
0000
0000
1FF8
0318
0318
0318
0318
0210
0000
0000
0000
0000
0000
0000
0000
0000
ENDCHAR
STARTCHAR U+F617
ENCODING 62999
SWIDTH 16000 0
DWIDTH 16 0
BBX 16 16 0 0
BITMAP
0000
0000
3800
1800
1800
1800
0FF8
0000
0000
0000
0000
0000
0000
0000
0000
0000
ENDCHAR
STARTCHAR U+F618
ENCODING 63000
SWIDTH 16000 0
DWIDTH 16 0
BBX 16 16 0 0
BITMAP
0000
0000
3FF0
1800
1800
1800
0FF0
0000
0000
0000
0000
0000
0000
0000
0000
0000
ENDCHAR
STARTCHAR U+F619
ENCODING 63001
SWIDTH 16000 0
DWIDTH 16 0
BBX 16 16 0 0
BITMAP
0000
0000
3FF8
18C0
18C0
18C0
0F78
0000
0000
0000
0000
0000
0000
0000
0000
0000
ENDCHAR
STARTCHAR U+F61A
ENCODING 63002
SWIDTH 16000 0
DWIDTH 16 0
BBX 16 16 0 0
BITMAP
0000
0000
1FF8
0018
1FF8
1800
0FF8
0000
0000
0000
0000
0000
0000
0000
0000
0000
ENDCHAR
STARTCHAR U+F61B
ENCODING 63003
SWIDTH 16000 0
DWIDTH 16 0
BBX 16 16 0 0
BITMAP
0000
0000
3FF0
1830
1830
1830
1FF0
0000
0000
0000
0000
0000
0000
0000
0000
0000
ENDCHAR
STARTCHAR U+F61C
ENCODING 63004
SWIDTH 16000 0
DWIDTH 16 0
BBX 16 16 0 0
BITMAP
0000
0000
3870
1830
1FF0
1830
1FF0
0000
0000
0000
0000
0000
0000
0000
0000
0000
ENDCHAR
STARTCHAR U+F61D
ENCODING 63005
SWIDTH 16000 0
DWIDTH 16 0
BBX 16 16 0 0
BITMAP
0000
0000
3998
1998
1FF8
1998
1FF8
0000
0000
0000
0000
0000
0000
0000
0000
0000
ENDCHAR
STARTCHAR U+F61E
ENCODING 63006
SWIDTH 16000 0
DWIDTH 16 0
BBX 16 16 0 0
BITMAP
0000
0000
0380
0180
03C0
0630
0C18
300C
0000
0000
0000
0000
0000
0000
0000
0000
ENDCHAR
STARTCHAR U+F61F
ENCODING 63007
SWIDTH 16000 0
DWIDTH 16 0
BBX 16 16 0 0
BITMAP
0000
0000
0C60
0C60
0E60
1AF0
3198
630C
0000
0000
0000
0000
0000
0000
0000
0000
ENDCHAR
STARTCHAR U+F620
ENCODING 63008
SWIDTH 16000 0
DWIDTH 16 0
BBX 16 16 0 0
BITMAP
0000
0000
0FE0
1830
1830
1830
0FE0
0000
0000
0000
0000
0000
0000
0000
0000
0000
ENDCHAR
STARTCHAR U+F621
ENCODING 63009
SWIDTH 16000 0
DWIDTH 16 0
BBX 16 16 0 0
BITMAP
0000
0000
1FF0
0060
00C0
0360
0C18
300C
0000
0000
0000
0000
0000
0000
0000
0000
ENDCHAR
STARTCHAR U+F622
ENCODING 63010
SWIDTH 16000 0
DWIDTH 16 0
BBX 16 16 0 0
BITMAP
0000
0000
3FF8
0660
0E70
1998
318C
0000
0000
0000
0000
0000
0000
0000
0000
0000
ENDCHAR
STARTCHAR U+F623
ENCODING 63011
SWIDTH 16000 0
DWIDTH 16 0
BBX 16 16 0 0
BITMAP
0000
03C0
0000
1FF8
01C0
0360
0E18
300C
0000
0000
0000
0000
0000
0000
0000
0000
ENDCHAR
STARTCHAR U+F624
ENCODING 63012
SWIDTH 16000 0
DWIDTH 16 0
BBX 16 16 0 0
BITMAP
0000
0000
1FF8
0018
0018
1FF8
0018
0018
0010
0000
0000
0000
0000
0000
0000
0000
ENDCHAR
STARTCHAR U+F625
ENCODING 63013
SWIDTH 16000 0
DWIDTH 16 0
BBX 16 16 0 0
BITMAP
0000
0000
3FF8
1800
1FF8
1800
0FF8
0000
0000
0000
0000
0000
0000
0000
0000
0000
ENDCHAR
STARTCHAR U+F626
ENCODING 63014
SWIDTH 16000 0
DWIDTH 16 0
BBX 16 16 0 0
BITMAP
0000
0000
1FF8
0660
0660
0660
1FF8
0000
0000
0000
0000
0000
0000
0000
0000
0000
ENDCHAR
STARTCHAR U+F627
ENCODING 63015
SWIDTH 16000 0
DWIDTH 16 0
BBX 16 16 0 0
BITMAP
0000
03C0
1FF8
07E0
0C30
0C30
07E0
0000
0000
0000
0000
0000
0000
0000
0000
0000
ENDCHAR
STARTCHAR U+F628
ENCODING 63016
SWIDTH 16000 0
DWIDTH 16 0
BBX 16 16 0 0
BITMAP
0000
0000
0000
0000
0000
0000
0000
0000
0000
0000
0000
0000
0000
0000
0000
0000
ENDCHAR
STARTCHAR U+F629
ENCODING 63017
SWIDTH 16000 0
DWIDTH 16 0
BBX 16 16 0 0
BITMAP
0000
0000
1FF0
0030
0030
0030
0030
0020
0000
0000
0000
0000
0000
0000
0000
0000
ENDCHAR
STARTCHAR U+F62A
ENCODING 63018
SWIDTH 16000 0
DWIDTH 16 0
BBX 16 16 0 0
BITMAP
0000
0000
1FF8
0318
0318
0318
0210
0000
0000
0000
0000
0000
0000
0000
0000
0000
ENDCHAR
STARTCHAR U+F62B
ENCODING 63019
SWIDTH 16000 0
DWIDTH 16 0
BBX 16 16 0 0
BITMAP
0000
0000
3800
1800
1800
1800
0FF8
0000
0000
0000
0000
0000
0000
0000
0000
0000
ENDCHAR
STARTCHAR U+F62C
ENCODING 63020
SWIDTH 16000 0
DWIDTH 16 0
BBX 16 16 0 0
BITMAP
0000
0000
3FF0
1800
1800
1800
0FF0
0000
0000
0000
0000
0000
0000
0000
0000
0000
ENDCHAR
STARTCHAR U+F62D
ENCODING 63021
SWIDTH 16000 0
DWIDTH 16 0
BBX 16 16 0 0
BITMAP
0000
0000
3FF8
18C0
18C0
18C0
0F78
0000
0000
0000
0000
0000
0000
0000
0000
0000
ENDCHAR
STARTCHAR U+F62E
ENCODING 63022
SWIDTH 16000 0
DWIDTH 16 0
BBX 16 16 0 0
BITMAP
0000
0000
1FF8
0018
1FF8
1800
0FF8
0000
0000
0000
0000
0000
0000
0000
0000
0000
ENDCHAR
STARTCHAR U+F62F
ENCODING 63023
SWIDTH 16000 0
DWIDTH 16 0
BBX 16 16 0 0
BITMAP
0000
0000
3FF0
1830
1830
1830
1FF0
0000
0000
0000
0000
0000
0000
0000
0000
0000
ENDCHAR
STARTCHAR U+F630
ENCODING 63024
SWIDTH 16000 0
DWIDTH 16 0
BBX 16 16 0 0
BITMAP
0000
0000
3870
1830
1FF0
1830
1FF0
0000
0000
0000
0000
0000
0000
0000
0000
0000
ENDCHAR
STARTCHAR U+F631
ENCODING 63025
SWIDTH 16000 0
DWIDTH 16 0
BBX 16 16 0 0
BITMAP
0000
0000
3998
1998
1FF8
1998
1FF8
0000
0000
0000
0000
0000
0000
0000
0000
0000
ENDCHAR
STARTCHAR U+F632
ENCODING 63026
SWIDTH 16000 0
DWIDTH 16 0
BBX 16 16 0 0
BITMAP
0000
0380
0180
03C0
0630
0C18
300C
0000
0000
0000
0000
0000
0000
0000
0000
0000
ENDCHAR
STARTCHAR U+F633
ENCODING 63027
SWIDTH 16000 0
DWIDTH 16 0
BBX 16 16 0 0
BITMAP
0000
0C60
0C60
0EE0
1AB0
3118
610C
0000
0000
0000
0000
0000
0000
0000
0000
0000
ENDCHAR
STARTCHAR U+F634
ENCODING 63028
SWIDTH 16000 0
DWIDTH 16 0
BBX 16 16 0 0
BITMAP
0000
07E0
0C30
0C30
0C30
07E0
0000
0000
0000
0000
0000
0000
0000
0000
0000
0000
ENDCHAR
STARTCHAR U+F635
ENCODING 63029
SWIDTH 16000 0
DWIDTH 16 0
BBX 16 16 0 0
BITMAP
0000
1FF0
0060
00C0
0360
0C18
300C
0000
0000
0000
0000
0000
0000
0000
0000
0000
ENDCHAR
STARTCHAR U+F636
ENCODING 63030
SWIDTH 16000 0
DWIDTH 16 0
BBX 16 16 0 0
BITMAP
0000
0000
3FF8
0660
0E70
1998
318C
0000
0000
0000
0000
0000
0000
0000
0000
0000
ENDCHAR
STARTCHAR U+F637
ENCODING 63031
SWIDTH 16000 0
DWIDTH 16 0
BBX 16 16 0 0
BITMAP
0000
03C0
1FF8
01C0
0360
0E18
300C
0000
0000
0000
0000
0000
0000
0000
0000
0000
ENDCHAR
STARTCHAR U+F638
ENCODING 63032
SWIDTH 16000 0
DWIDTH 16 0
BBX 16 16 0 0
BITMAP
0000
0000
1FF8
0018
0018
1FF8
0018
0010
0000
0000
0000
0000
0000
0000
0000
0000
ENDCHAR
STARTCHAR U+F639
ENCODING 63033
SWIDTH 16000 0
DWIDTH 16 0
BBX 16 16 0 0
BITMAP
0000
0000
3FF8
1800
1FF8
1800
0FF8
0000
0000
0000
0000
0000
0000
0000
0000
0000
ENDCHAR
STARTCHAR U+F63A
ENCODING 63034
SWIDTH 16000 0
DWIDTH 16 0
BBX 16 16 0 0
BITMAP
0000
0000
1FF8
0660
0660
0660
1FF8
0000
0000
0000
0000
0000
0000
0000
0000
0000
ENDCHAR
STARTCHAR U+F63B
ENCODING 63035
SWIDTH 16000 0
DWIDTH 16 0
BBX 16 16 0 0
BITMAP
0000
03C0
1FF8
07E0
0C30
0C30
07E0
0000
0000
0000
0000
0000
0000
0000
0000
0000
ENDCHAR
STARTCHAR U+F63C
ENCODING 63036
SWIDTH 16000 0
DWIDTH 16 0
BBX 16 16 0 0
BITMAP
0000
0000
0000
0000
0000
0000
0000
0000
0000
0000
0000
0000
0000
0000
0000
0000
ENDCHAR
STARTCHAR U+F63D
ENCODING 63037
SWIDTH 16000 0
DWIDTH 16 0
BBX 16 16 0 0
BITMAP
0000
0000
3F80
0180
0180
0180
0180
0100
0000
0000
0000
0000
0000
0000
0000
0000
ENDCHAR
STARTCHAR U+F63E
ENCODING 63038
SWIDTH 16000 0
DWIDTH 16 0
BBX 16 16 0 0
BITMAP
0000
0000
3FC0
0CC0
0CC0
0CC0
0CC0
0880
0000
0000
0000
0000
0000
0000
0000
0000
ENDCHAR
STARTCHAR U+F63F
ENCODING 63039
SWIDTH 16000 0
DWIDTH 16 0
BBX 16 16 0 0
BITMAP
0000
0000
7000
3000
3000
3000
1FC0
0000
0000
0000
0000
0000
0000
0000
0000
0000
ENDCHAR
STARTCHAR U+F640
ENCODING 63040
SWIDTH 16000 0
DWIDTH 16 0
BBX 16 16 0 0
BITMAP
0000
0000
7F80
3000
3000
3000
1F80
0000
0000
0000
0000
0000
0000
0000
0000
0000
ENDCHAR
STARTCHAR U+F641
ENCODING 63041
SWIDTH 16000 0
DWIDTH 16 0
BBX 16 16 0 0
BITMAP
0000
0000
7FC0
3300
3300
3300
1DC0
0000
0000
0000
0000
0000
0000
0000
0000
0000
ENDCHAR
STARTCHAR U+F642
ENCODING 63042
SWIDTH 16000 0
DWIDTH 16 0
BBX 16 16 0 0
BITMAP
0000
0000
3F80
0180
3F80
3000
1F80
0000
0000
0000
0000
0000
0000
0000
0000
0000
ENDCHAR
STARTCHAR U+F643
ENCODING 63043
SWIDTH 16000 0
DWIDTH 16 0
BBX 16 16 0 0
BITMAP
0000
0000
7F80
3180
3180
3180
3F80
0000
0000
0000
0000
0000
0000
0000
0000
0000
ENDCHAR
STARTCHAR U+F644
ENCODING 63044
SWIDTH 16000 0
DWIDTH 16 0
BBX 16 16 0 0
BITMAP
0000
0000
7380
3180
3F80
3180
3F80
0000
0000
0000
0000
0000
0000
0000
0000
0000
ENDCHAR
STARTCHAR U+F645
ENCODING 63045
SWIDTH 16000 0
DWIDTH 16 0
BBX 16 16 0 0
BITMAP
0000
0000
76C0
36C0
3FC0
36C0
3FC0
0000
0000
0000
0000
0000
0000
0000
0000
0000
ENDCHAR
STARTCHAR U+F646
ENCODING 63046
SWIDTH 16000 0
DWIDTH 16 0
BBX 16 16 0 0
BITMAP
0000
0000
0E00
0600
0E00
1980
30C0
4060
0000
0000
0000
0000
0000
0000
0000
0000
ENDCHAR
STARTCHAR U+F647
ENCODING 63047
SWIDTH 16000 0
DWIDTH 16 0
BBX 16 16 0 0
BITMAP
0000
0000
1980
1980
1980
1F80
36C0
6660
0000
0000
0000
0000
0000
0000
0000
0000
ENDCHAR
STARTCHAR U+F648
ENCODING 63048
SWIDTH 16000 0
DWIDTH 16 0
BBX 16 16 0 0
BITMAP
0000
0000
1F00
3180
3180
3180
1F00
0000
0000
0000
0000
0000
0000
0000
0000
0000
ENDCHAR
STARTCHAR U+F649
ENCODING 63049
SWIDTH 16000 0
DWIDTH 16 0
BBX 16 16 0 0
BITMAP
0000
0000
3F80
0300
0600
0D80
30C0
0000
0000
0000
0000
0000
0000
0000
0000
0000
ENDCHAR
STARTCHAR U+F64A
ENCODING 63050
SWIDTH 16000 0
DWIDTH 16 0
BBX 16 16 0 0
BITMAP
0000
0000
3FC0
0D80
1B00
3F80
64C0
0000
0000
0000
0000
0000
0000
0000
0000
0000
ENDCHAR
STARTCHAR U+F64B
ENCODING 63051
SWIDTH 16000 0
DWIDTH 16 0
BBX 16 16 0 0
BITMAP
0000
0000
0E00
3F80
0300
0600
0D80
30C0
0000
0000
0000
0000
0000
0000
0000
0000
ENDCHAR
STARTCHAR U+F64C
ENCODING 63052
SWIDTH 16000 0
DWIDTH 16 0
BBX 16 16 0 0
BITMAP
0000
0000
3FC0
00C0
3FC0
00C0
00C0
0080
0000
0000
0000
0000
0000
0000
0000
0000
ENDCHAR
STARTCHAR U+F64D
ENCODING 63053
SWIDTH 16000 0
DWIDTH 16 0
BBX 16 16 0 0
BITMAP
0000
0000
7F80
3000
3F80
3000
1F80
0000
0000
0000
0000
0000
0000
0000
0000
0000
ENDCHAR
STARTCHAR U+F64E
ENCODING 63054
SWIDTH 16000 0
DWIDTH 16 0
BBX 16 16 0 0
BITMAP
0000
0000
3FC0
1980
1980
1980
3FC0
0000
0000
0000
0000
0000
0000
0000
0000
0000
ENDCHAR
STARTCHAR U+F64F
ENCODING 63055
SWIDTH 16000 0
DWIDTH 16 0
BBX 16 16 0 0
BITMAP
0000
0E00
7FC0
1F00
3180
3180
1F00
0000
0000
0000
0000
0000
0000
0000
0000
0000
ENDCHAR
STARTCHAR U+F650
ENCODING 63056
SWIDTH 16000 0
DWIDTH 16 0
BBX 16 16 0 0
BITMAP
0000
0000
0000
0000
0000
0000
0000
0000
0000
0000
0000
0000
0000
0000
0000
0000
ENDCHAR
STARTCHAR U+F651
ENCODING 63057
SWIDTH 16000 0
DWIDTH 16 0
BBX 16 16 0 0
BITMAP
0000
0000
3F80
0180
0180
0180
0180
0100
0000
0000
0000
0000
0000
0000
0000
0000
ENDCHAR
STARTCHAR U+F652
ENCODING 63058
SWIDTH 16000 0
DWIDTH 16 0
BBX 16 16 0 0
BITMAP
0000
0000
7F80
1980
1980
1980
1100
0000
0000
0000
0000
0000
0000
0000
0000
0000
ENDCHAR
STARTCHAR U+F653
ENCODING 63059
SWIDTH 16000 0
DWIDTH 16 0
BBX 16 16 0 0
BITMAP
0000
0000
7000
3000
3000
3000
1F80
0000
0000
0000
0000
0000
0000
0000
0000
0000
ENDCHAR
STARTCHAR U+F654
ENCODING 63060
SWIDTH 16000 0
DWIDTH 16 0
BBX 16 16 0 0
BITMAP
0000
0000
7F80
3000
3000
3000
1F80
0000
0000
0000
0000
0000
0000
0000
0000
0000
ENDCHAR
STARTCHAR U+F655
ENCODING 63061
SWIDTH 16000 0
DWIDTH 16 0
BBX 16 16 0 0
BITMAP
0000
0000
7FC0
3300
3300
3300
1DC0
0000
0000
0000
0000
0000
0000
0000
0000
0000
ENDCHAR
STARTCHAR U+F656
ENCODING 63062
SWIDTH 16000 0
DWIDTH 16 0
BBX 16 16 0 0
BITMAP
0000
0000
3F80
0180
3F80
3000
1F80
0000
0000
0000
0000
0000
0000
0000
0000
0000
ENDCHAR
STARTCHAR U+F657
ENCODING 63063
SWIDTH 16000 0
DWIDTH 16 0
BBX 16 16 0 0
BITMAP
0000
0000
7F80
3180
3180
3180
3F80
0000
0000
0000
0000
0000
0000
0000
0000
0000
ENDCHAR
STARTCHAR U+F658
ENCODING 63064
SWIDTH 16000 0
DWIDTH 16 0
BBX 16 16 0 0
BITMAP
0000
0000
7380
3180
3F80
3180
3F80
0000
0000
0000
0000
0000
0000
0000
0000
0000
ENDCHAR
STARTCHAR U+F659
ENCODING 63065
SWIDTH 16000 0
DWIDTH 16 0
BBX 16 16 0 0
BITMAP
0000
0000
76C0
36C0
3FC0
36C0
3FC0
0000
0000
0000
0000
0000
0000
0000
0000
0000
ENDCHAR
STARTCHAR U+F65A
ENCODING 63066
SWIDTH 16000 0
DWIDTH 16 0
BBX 16 16 0 0
BITMAP
0000
0E00
0600
0E00
1980
30C0
4040
0000
0000
0000
0000
0000
0000
0000
0000
0000
ENDCHAR
STARTCHAR U+F65B
ENCODING 63067
SWIDTH 16000 0
DWIDTH 16 0
BBX 16 16 0 0
BITMAP
0000
0000
1980
1980
1F80
36C0
6660
0000
0000
0000
0000
0000
0000
0000
0000
0000
ENDCHAR
STARTCHAR U+F65C
ENCODING 63068
SWIDTH 16000 0
DWIDTH 16 0
BBX 16 16 0 0
BITMAP
0000
0000
1F00
3180
3180
3180
1F00
0000
0000
0000
0000
0000
0000
0000
0000
0000
ENDCHAR
STARTCHAR U+F65D
ENCODING 63069
SWIDTH 16000 0
DWIDTH 16 0
BBX 16 16 0 0
BITMAP
0000
0000
3F80
0300
0600
1980
60C0
0000
0000
0000
0000
0000
0000
0000
0000
0000
ENDCHAR
STARTCHAR U+F65E
ENCODING 63070
SWIDTH 16000 0
DWIDTH 16 0
BBX 16 16 0 0
BITMAP
0000
0000
7FC0
0D80
1B00
3F80
66C0
0000
0000
0000
0000
0000
0000
0000
0000
0000
ENDCHAR
STARTCHAR U+F65F
ENCODING 63071
SWIDTH 16000 0
DWIDTH 16 0
BBX 16 16 0 0
BITMAP
0000
0E00
7F80
0300
0600
1980
60C0
0000
0000
0000
0000
0000
0000
0000
0000
0000
ENDCHAR
STARTCHAR U+F660
ENCODING 63072
SWIDTH 16000 0
DWIDTH 16 0
BBX 16 16 0 0
BITMAP
0000
0000
3F80
0180
3F80
0180
0180
0100
0000
0000
0000
0000
0000
0000
0000
0000
ENDCHAR
STARTCHAR U+F661
ENCODING 63073
SWIDTH 16000 0
DWIDTH 16 0
BBX 16 16 0 0
BITMAP
0000
0000
7F80
3000
3F80
3000
1F80
0000
0000
0000
0000
0000
0000
0000
0000
0000
ENDCHAR
STARTCHAR U+F662
ENCODING 63074
SWIDTH 16000 0
DWIDTH 16 0
BBX 16 16 0 0
BITMAP
0000
0000
7F80
3300
3300
3300
7F80
0000
0000
0000
0000
0000
0000
0000
0000
0000
ENDCHAR
STARTCHAR U+F663
ENCODING 63075
SWIDTH 16000 0
DWIDTH 16 0
BBX 16 16 0 0
BITMAP
0000
0E00
7FC0
1F00
3180
3180
1F00
0000
0000
0000
0000
0000
0000
0000
0000
0000
ENDCHAR
STARTCHAR U+F664
ENCODING 63076
SWIDTH 16000 0
DWIDTH 16 0
BBX 16 16 0 0
BITMAP
0000
0000
0000
0000
0000
0000
0000
0000
0000
0000
0000
0000
0000
0000
0000
0000
ENDCHAR
STARTCHAR U+F665
ENCODING 63077
SWIDTH 16000 0
DWIDTH 16 0
BBX 16 16 0 0
BITMAP
0000
0000
3F80
0180
0180
0300
0600
0C00
3000
0000
0000
0000
0000
0000
0000
0000
ENDCHAR
STARTCHAR U+F666
ENCODING 63078
SWIDTH 16000 0
DWIDTH 16 0
BBX 16 16 0 0
BITMAP
0000
0000
7F80
0D80
0D80
1B00
1B00
3600
4800
0000
0000
0000
0000
0000
0000
0000
ENDCHAR
STARTCHAR U+F667
ENCODING 63079
SWIDTH 16000 0
DWIDTH 16 0
BBX 16 16 0 0
BITMAP
0000
0000
7000
3000
3000
3000
3000
1F80
0000
0000
0000
0000
0000
0000
0000
0000
ENDCHAR
STARTCHAR U+F668
ENCODING 63080
SWIDTH 16000 0
DWIDTH 16 0
BBX 16 16 0 0
BITMAP
0000
0000
7F00
3000
3000
3000
3000
1F80
0000
0000
0000
0000
0000
0000
0000
0000
ENDCHAR
STARTCHAR U+F669
ENCODING 63081
SWIDTH 16000 0
DWIDTH 16 0
BBX 16 16 0 0
BITMAP
0000
0000
7F80
3600
3600
3600
3600
1BC0
0000
0000
0000
0000
0000
0000
0000
0000
ENDCHAR
STARTCHAR U+F66A
ENCODING 63082
SWIDTH 16000 0
DWIDTH 16 0
BBX 16 16 0 0
BITMAP
0000
0000
3F80
0180
0180
3F80
3000
3000
1FC0
0000
0000
0000
0000
0000
0000
0000
ENDCHAR
STARTCHAR U+F66B
ENCODING 63083
SWIDTH 16000 0
DWIDTH 16 0
BBX 16 16 0 0
BITMAP
0000
0000
7F80
3180
3180
3180
3180
3F80
0000
0000
0000
0000
0000
0000
0000
0000
ENDCHAR
STARTCHAR U+F66C
ENCODING 63084
SWIDTH 16000 0
DWIDTH 16 0
BBX 16 16 0 0
BITMAP
0000
0000
7380
3180
3F80
3180
3180
3F80
0000
0000
0000
0000
0000
0000
0000
0000
ENDCHAR
STARTCHAR U+F66D
ENCODING 63085
SWIDTH 16000 0
DWIDTH 16 0
BBX 16 16 0 0
BITMAP
0000
0000
ED80
6D80
7F80
6D80
6D80
7F80
0000
0000
0000
0000
0000
0000
0000
0000
ENDCHAR
STARTCHAR U+F66E
ENCODING 63086
SWIDTH 16000 0
DWIDTH 16 0
BBX 16 16 0 0
BITMAP
0000
0000
0E00
0600
0600
0E00
0B00
1980
60C0
0000
0000
0000
0000
0000
0000
0000
ENDCHAR
STARTCHAR U+F66F
ENCODING 63087
SWIDTH 16000 0
DWIDTH 16 0
BBX 16 16 0 0
BITMAP
0000
0000
1B00
1B00
1B00
1500
3580
64C0
0000
0000
0000
0000
0000
0000
0000
0000
ENDCHAR
STARTCHAR U+F670
ENCODING 63088
SWIDTH 16000 0
DWIDTH 16 0
BBX 16 16 0 0
BITMAP
0000
0000
1F00
3180
3180
3180
3180
1F00
0000
0000
0000
0000
0000
0000
0000
0000
ENDCHAR
STARTCHAR U+F671
ENCODING 63089
SWIDTH 16000 0
DWIDTH 16 0
BBX 16 16 0 0
BITMAP
0000
0000
3F80
0180
0300
0600
0D80
30C0
0000
0000
0000
0000
0000
0000
0000
0000
ENDCHAR
STARTCHAR U+F672
ENCODING 63090
SWIDTH 16000 0
DWIDTH 16 0
BBX 16 16 0 0
BITMAP
0000
0000
7F80
0D80
0D80
1B00
3F00
6D80
18C0
0000
0000
0000
0000
0000
0000
0000
ENDCHAR
STARTCHAR U+F673
ENCODING 63091
SWIDTH 16000 0
DWIDTH 16 0
BBX 16 16 0 0
BITMAP
0000
0000
1C00
7F00
0300
0600
0E00
1B00
6180
0000
0000
0000
0000
0000
0000
0000
ENDCHAR
STARTCHAR U+F674
ENCODING 63092
SWIDTH 16000 0
DWIDTH 16 0
BBX 16 16 0 0
BITMAP
0000
0000
3F80
0180
3F80
0300
0600
0C00
3000
0000
0000
0000
0000
0000
0000
0000
ENDCHAR
STARTCHAR U+F675
ENCODING 63093
SWIDTH 16000 0
DWIDTH 16 0
BBX 16 16 0 0
BITMAP
0000
0000
7F00
3000
3000
3F00
3000
3000
1F80
0000
0000
0000
0000
0000
0000
0000
ENDCHAR
STARTCHAR U+F676
ENCODING 63094
SWIDTH 16000 0
DWIDTH 16 0
BBX 16 16 0 0
BITMAP
0000
0000
7FC0
3300
3300
3300
3300
7FC0
0000
0000
0000
0000
0000
0000
0000
0000
ENDCHAR
STARTCHAR U+F677
ENCODING 63095
SWIDTH 16000 0
DWIDTH 16 0
BBX 16 16 0 0
BITMAP
0000
0C00
7F80
1E00
3300
3300
3300
1E00
0000
0000
0000
0000
0000
0000
0000
0000
ENDCHAR
STARTCHAR U+F678
ENCODING 63096
SWIDTH 16000 0
DWIDTH 16 0
BBX 16 16 0 0
BITMAP
0000
0000
0000
0000
0000
0000
0000
0000
0000
0000
0000
0000
0000
0000
0000
0000
ENDCHAR
STARTCHAR U+F679
ENCODING 63097
SWIDTH 16000 0
DWIDTH 16 0
BBX 16 16 0 0
BITMAP
0000
0000
1FF8
0018
0018
0018
0010
0000
0000
0000
0000
0000
0000
0000
0000
0000
ENDCHAR
STARTCHAR U+F67A
ENCODING 63098
SWIDTH 16000 0
DWIDTH 16 0
BBX 16 16 0 0
BITMAP
0000
0000
3FF8
0618
0618
0618
0410
0000
0000
0000
0000
0000
0000
0000
0000
0000
ENDCHAR
STARTCHAR U+F67B
ENCODING 63099
SWIDTH 16000 0
DWIDTH 16 0
BBX 16 16 0 0
BITMAP
0000
0000
3800
1800
1800
0FF8
0000
0000
0000
0000
0000
0000
0000
0000
0000
0000
ENDCHAR
STARTCHAR U+F67C
ENCODING 63100
SWIDTH 16000 0
DWIDTH 16 0
BBX 16 16 0 0
BITMAP
0000
0000
3FF8
1800
1800
0FF8
0000
0000
0000
0000
0000
0000
0000
0000
0000
0000
ENDCHAR
STARTCHAR U+F67D
ENCODING 63101
SWIDTH 16000 0
DWIDTH 16 0
BBX 16 16 0 0
BITMAP
0000
0000
3FF8
18C0
18C0
0F78
0000
0000
0000
0000
0000
0000
0000
0000
0000
0000
ENDCHAR
STARTCHAR U+F67E
ENCODING 63102
SWIDTH 16000 0
DWIDTH 16 0
BBX 16 16 0 0
BITMAP
0000
0000
1FF8
0018
1FF8
1800
0FF8
0000
0000
0000
0000
0000
0000
0000
0000
0000
ENDCHAR
STARTCHAR U+F67F
ENCODING 63103
SWIDTH 16000 0
DWIDTH 16 0
BBX 16 16 0 0
BITMAP
0000
0000
1FF8
0C18
0C18
0FF8
0000
0000
0000
0000
0000
0000
0000
0000
0000
0000
ENDCHAR
STARTCHAR U+F680
ENCODING 63104
SWIDTH 16000 0
DWIDTH 16 0
BBX 16 16 0 0
BITMAP
0000
0000
3838
1818
1FF8
1818
1FF8
0000
0000
0000
0000
0000
0000
0000
0000
0000
ENDCHAR
STARTCHAR U+F681
ENCODING 63105
SWIDTH 16000 0
DWIDTH 16 0
BBX 16 16 0 0
BITMAP
0000
0000
3998
1998
1FF8
1998
1FF8
0000
0000
0000
0000
0000
0000
0000
0000
0000
ENDCHAR
STARTCHAR U+F682
ENCODING 63106
SWIDTH 16000 0
DWIDTH 16 0
BBX 16 16 0 0
BITMAP
0000
0380
0180
03C0
0630
0C18
300C
0000
0000
0000
0000
0000
0000
0000
0000
0000
ENDCHAR
STARTCHAR U+F683
ENCODING 63107
SWIDTH 16000 0
DWIDTH 16 0
BBX 16 16 0 0
BITMAP
0000
0C60
0C60
0E60
1BF0
3198
630C
0000
0000
0000
0000
0000
0000
0000
0000
0000
ENDCHAR
STARTCHAR U+F684
ENCODING 63108
SWIDTH 16000 0
DWIDTH 16 0
BBX 16 16 0 0
BITMAP
0000
0000
07E0
0C30
0C30
0C30
07E0
0000
0000
0000
0000
0000
0000
0000
0000
0000
ENDCHAR
STARTCHAR U+F685
ENCODING 63109
SWIDTH 16000 0
DWIDTH 16 0
BBX 16 16 0 0
BITMAP
0000
0000
1FF0
0060
00C0
0360
1C18
0000
0000
0000
0000
0000
0000
0000
0000
0000
ENDCHAR
STARTCHAR U+F686
ENCODING 63110
SWIDTH 16000 0
DWIDTH 16 0
BBX 16 16 0 0
BITMAP
0000
0000
3FF8
0660
0E70
1998
318C
0000
0000
0000
0000
0000
0000
0000
0000
0000
ENDCHAR
STARTCHAR U+F687
ENCODING 63111
SWIDTH 16000 0
DWIDTH 16 0
BBX 16 16 0 0
BITMAP
0000
01C0
1FF8
01C0
0360
0630
180C
0000
0000
0000
0000
0000
0000
0000
0000
0000
ENDCHAR
STARTCHAR U+F688
ENCODING 63112
SWIDTH 16000 0
DWIDTH 16 0
BBX 16 16 0 0
BITMAP
0000
0000
1FF8
0018
1FF8
0018
0010
0000
0000
0000
0000
0000
0000
0000
0000
0000
ENDCHAR
STARTCHAR U+F689
ENCODING 63113
SWIDTH 16000 0
DWIDTH 16 0
BBX 16 16 0 0
BITMAP
0000
0000
3FF8
1800
1FF8
1800
0FF8
0000
0000
0000
0000
0000
0000
0000
0000
0000
ENDCHAR
STARTCHAR U+F68A
ENCODING 63114
SWIDTH 16000 0
DWIDTH 16 0
BBX 16 16 0 0
BITMAP
0000
0000
1FF8
0660
0660
0660
1FF8
0000
0000
0000
0000
0000
0000
0000
0000
0000
ENDCHAR
STARTCHAR U+F68B
ENCODING 63115
SWIDTH 16000 0
DWIDTH 16 0
BBX 16 16 0 0
BITMAP
0000
03C0
1FF8
07E0
0C30
0C30
07E0
0000
0000
0000
0000
0000
0000
0000
0000
0000
ENDCHAR
STARTCHAR U+F68C
ENCODING 63116
SWIDTH 16000 0
DWIDTH 16 0
BBX 16 16 0 0
BITMAP
0000
0000
0000
0000
0000
0000
0000
0000
0000
0000
0000
0000
0000
0000
0000
0000
ENDCHAR
STARTCHAR U+F68D
ENCODING 63117
SWIDTH 16000 0
DWIDTH 16 0
BBX 16 16 0 0
BITMAP
0000
0000
3F80
0180
0180
0180
0100
0000
0000
0000
0000
0000
0000
0000
0000
0000
ENDCHAR
STARTCHAR U+F68E
ENCODING 63118
SWIDTH 16000 0
DWIDTH 16 0
BBX 16 16 0 0
BITMAP
0000
0000
7F80
1980
1980
1980
1100
0000
0000
0000
0000
0000
0000
0000
0000
0000
ENDCHAR
STARTCHAR U+F68F
ENCODING 63119
SWIDTH 16000 0
DWIDTH 16 0
BBX 16 16 0 0
BITMAP
0000
0000
7000
3000
3000
3000
1F80
0000
0000
0000
0000
0000
0000
0000
0000
0000
ENDCHAR
STARTCHAR U+F690
ENCODING 63120
SWIDTH 16000 0
DWIDTH 16 0
BBX 16 16 0 0
BITMAP
0000
0000
7F80
3000
3000
3000
1F80
0000
0000
0000
0000
0000
0000
0000
0000
0000
ENDCHAR
STARTCHAR U+F691
ENCODING 63121
SWIDTH 16000 0
DWIDTH 16 0
BBX 16 16 0 0
BITMAP
0000
0000
7FC0
3300
3300
3300
1DC0
0000
0000
0000
0000
0000
0000
0000
0000
0000
ENDCHAR
STARTCHAR U+F692
ENCODING 63122
SWIDTH 16000 0
DWIDTH 16 0
BBX 16 16 0 0
BITMAP
0000
0000
3F80
0180
3F80
3000
1F80
0000
0000
0000
0000
0000
0000
0000
0000
0000
ENDCHAR
STARTCHAR U+F693
ENCODING 63123
SWIDTH 16000 0
DWIDTH 16 0
BBX 16 16 0 0
BITMAP
0000
0000
7F80
3180
3180
3180
3F80
0000
0000
0000
0000
0000
0000
0000
0000
0000
ENDCHAR
STARTCHAR U+F694
ENCODING 63124
SWIDTH 16000 0
DWIDTH 16 0
BBX 16 16 0 0
BITMAP
0000
0000
7380
3180
3F80
3180
3F80
0000
0000
0000
0000
0000
0000
0000
0000
0000
ENDCHAR
STARTCHAR U+F695
ENCODING 63125
SWIDTH 16000 0
DWIDTH 16 0
BBX 16 16 0 0
BITMAP
0000
0000
76C0
36C0
3FC0
36C0
3FC0
0000
0000
0000
0000
0000
0000
0000
0000
0000
ENDCHAR
STARTCHAR U+F696
ENCODING 63126
SWIDTH 16000 0
DWIDTH 16 0
BBX 16 16 0 0
BITMAP
0000
0E00
0600
0E00
1980
30C0
4040
0000
0000
0000
0000
0000
0000
0000
0000
0000
ENDCHAR
STARTCHAR U+F697
ENCODING 63127
SWIDTH 16000 0
DWIDTH 16 0
BBX 16 16 0 0
BITMAP
0000
0000
1980
1980
1F80
36C0
6660
0000
0000
0000
0000
0000
0000
0000
0000
0000
ENDCHAR
STARTCHAR U+F698
ENCODING 63128
SWIDTH 16000 0
DWIDTH 16 0
BBX 16 16 0 0
BITMAP
0000
0000
1F00
3180
3180
3180
1F00
0000
0000
0000
0000
0000
0000
0000
0000
0000
ENDCHAR
STARTCHAR U+F699
ENCODING 63129
SWIDTH 16000 0
DWIDTH 16 0
BBX 16 16 0 0
BITMAP
0000
0000
3F80
0300
0600
1980
60C0
0000
0000
0000
0000
0000
0000
0000
0000
0000
ENDCHAR
STARTCHAR U+F69A
ENCODING 63130
SWIDTH 16000 0
DWIDTH 16 0
BBX 16 16 0 0
BITMAP
0000
0000
7FC0
0D80
1B00
3F80
64C0
0000
0000
0000
0000
0000
0000
0000
0000
0000
ENDCHAR
STARTCHAR U+F69B
ENCODING 63131
SWIDTH 16000 0
DWIDTH 16 0
BBX 16 16 0 0
BITMAP
0000
0E00
7F80
0300
0600
1980
60C0
0000
0000
0000
0000
0000
0000
0000
0000
0000
ENDCHAR
STARTCHAR U+F69C
ENCODING 63132
SWIDTH 16000 0
DWIDTH 16 0
BBX 16 16 0 0
BITMAP
0000
0000
3F80
0180
3F80
0180
0180
0100
0000
0000
0000
0000
0000
0000
0000
0000
ENDCHAR
STARTCHAR U+F69D
ENCODING 63133
SWIDTH 16000 0
DWIDTH 16 0
BBX 16 16 0 0
BITMAP
0000
0000
7F80
3000
3F80
3000
1F80
0000
0000
0000
0000
0000
0000
0000
0000
0000
ENDCHAR
STARTCHAR U+F69E
ENCODING 63134
SWIDTH 16000 0
DWIDTH 16 0
BBX 16 16 0 0
BITMAP
0000
0000
7F80
3300
3300
3300
7F80
0000
0000
0000
0000
0000
0000
0000
0000
0000
ENDCHAR
STARTCHAR U+F69F
ENCODING 63135
SWIDTH 16000 0
DWIDTH 16 0
BBX 16 16 0 0
BITMAP
0000
0E00
7FC0
1F00
3180
3180
1F00
0000
0000
0000
0000
0000
0000
0000
0000
0000
ENDCHAR
STARTCHAR U+F6A0
ENCODING 63136
SWIDTH 16000 0
DWIDTH 16 0
BBX 16 16 0 0
BITMAP
0000
0000
0000
0000
0000
0000
0000
0000
0000
0000
0000
0000
0000
0000
0000
0000
ENDCHAR
STARTCHAR U+F6A1
ENCODING 63137
SWIDTH 16000 0
DWIDTH 16 0
BBX 16 16 0 0
BITMAP
0000
0038
0018
0018
0018
0018
001F
0018
0018
0018
0018
0018
0018
0018
0010
0000
ENDCHAR
STARTCHAR U+F6A2
ENCODING 63138
SWIDTH 16000 0
DWIDTH 16 0
BBX 16 16 0 0
BITMAP
0000
000E
0076
0036
0036
0036
003E
0036
0036
0036
0036
0036
0036
0026
0004
0000
ENDCHAR
STARTCHAR U+F6A3
ENCODING 63139
SWIDTH 16000 0
DWIDTH 16 0
BBX 16 16 0 0
BITMAP
0000
0038
0018
0018
0018
001F
0018
0018
001F
0018
0018
0018
0018
0018
0010
0000
ENDCHAR
STARTCHAR U+F6A4
ENCODING 63140
SWIDTH 16000 0
DWIDTH 16 0
BBX 16 16 0 0
BITMAP
0000
000E
0076
0036
0036
003E
0036
0036
003E
0036
0036
0036
0036
0026
0004
0000
ENDCHAR
STARTCHAR U+F6A5
ENCODING 63141
SWIDTH 16000 0
DWIDTH 16 0
BBX 16 16 0 0
BITMAP
0000
001C
000C
000C
000C
000C
007C
000C
000C
000C
000C
000C
000C
000C
0008
0000
ENDCHAR
STARTCHAR U+F6A6
ENCODING 63142
SWIDTH 16000 0
DWIDTH 16 0
BBX 16 16 0 0
BITMAP
0000
000E
0076
0036
0036
0036
00F6
0036
0036
0036
0036
0036
0036
0026
0004
0000
ENDCHAR
STARTCHAR U+F6A7
ENCODING 63143
SWIDTH 16000 0
DWIDTH 16 0
BBX 16 16 0 0
BITMAP
0000
001C
000C
000C
000C
007C
000C
007C
000C
000C
000C
000C
000C
000C
0008
0000
ENDCHAR
STARTCHAR U+F6A8
ENCODING 63144
SWIDTH 16000 0
DWIDTH 16 0
BBX 16 16 0 0
BITMAP
0000
000E
0076
0036
0036
01F6
0036
01F6
0036
0036
0036
0036
0036
0026
0004
0000
ENDCHAR
STARTCHAR U+F6A9
ENCODING 63145
SWIDTH 16000 0
DWIDTH 16 0
BBX 16 16 0 0
BITMAP
0000
0000
0000
0000
0000
0000
0000
0000
0180
0180
0180
7FFE
0000
0000
0000
0000
ENDCHAR
STARTCHAR U+F6AA
ENCODING 63146
SWIDTH 16000 0
DWIDTH 16 0
BBX 16 16 0 0
BITMAP
0000
0038
0018
0018
0018
0018
0018
001F
0C18
0C18
7FD8
0018
0018
0018
0010
0000
ENDCHAR
STARTCHAR U+F6AB
ENCODING 63147
SWIDTH 16000 0
DWIDTH 16 0
BBX 16 16 0 0
BITMAP
0000
000E
0076
0036
0036
0036
003E
0036
1836
1836
7FB6
0036
0036
0026
0004
0000
ENDCHAR
STARTCHAR U+F6AC
ENCODING 63148
SWIDTH 16000 0
DWIDTH 16 0
BBX 16 16 0 0
BITMAP
0000
001C
000C
000C
000C
000C
000C
000C
0C0C
0C0C
7FEC
000C
000C
000C
0008
0000
ENDCHAR
STARTCHAR U+F6AD
ENCODING 63149
SWIDTH 16000 0
DWIDTH 16 0
BBX 16 16 0 0
BITMAP
0000
0000
0000
0000
0000
0000
0000
0000
0CE0
0C60
0C60
7FFE
0000
0000
0000
0000
ENDCHAR
STARTCHAR U+F6AE
ENCODING 63150
SWIDTH 16000 0
DWIDTH 16 0
BBX 16 16 0 0
BITMAP
0000
0000
0000
0000
0000
0000
0000
0000
7FFE
0180
0180
0180
0180
0180
0100
0000
ENDCHAR
STARTCHAR U+F6AF
ENCODING 63151
SWIDTH 16000 0
DWIDTH 16 0
BBX 16 16 0 0
BITMAP
0000
001C
000C
000C
000C
000C
000C
000C
7FEC
060C
067C
060C
060C
040C
0008
0000
ENDCHAR
STARTCHAR U+F6B0
ENCODING 63152
SWIDTH 16000 0
DWIDTH 16 0
BBX 16 16 0 0
BITMAP
0000
000E
0076
0036
0036
0036
0036
0036
7FB6
0C36
0DF6
0C36
0C36
0826
0004
0000
ENDCHAR
STARTCHAR U+F6B1
ENCODING 63153
SWIDTH 16000 0
DWIDTH 16 0
BBX 16 16 0 0
BITMAP
0000
001C
000C
000C
000C
000C
000C
000C
7FEC
060C
060C
060C
060C
040C
0008
0000
ENDCHAR
STARTCHAR U+F6B2
ENCODING 63154
SWIDTH 16000 0
DWIDTH 16 0
BBX 16 16 0 0
BITMAP
0000
0000
0000
0000
0000
0000
0000
0000
7FFE
0660
0660
0660
0660
0660
0440
0000
ENDCHAR
STARTCHAR U+F6B3
ENCODING 63155
SWIDTH 16000 0
DWIDTH 16 0
BBX 16 16 0 0
BITMAP
0000
0000
0000
0000
0000
0000
0000
0000
0000
0000
0000
7FFE
0000
0000
0000
0000
ENDCHAR
STARTCHAR U+F6B4
ENCODING 63156
SWIDTH 16000 0
DWIDTH 16 0
BBX 16 16 0 0
BITMAP
0000
001C
000C
000C
000C
000C
000C
000C
000C
00EC
7F0C
000C
000C
000C
0008
0000
ENDCHAR
STARTCHAR U+F6B5
ENCODING 63157
SWIDTH 16000 0
DWIDTH 16 0
BBX 16 16 0 0
BITMAP
0000
001C
000C
000C
000C
000C
000C
000C
000C
000C
000C
000C
000C
000C
0008
0000
ENDCHAR
STARTCHAR U+F6B6
ENCODING 63158
SWIDTH 16000 0
DWIDTH 16 0
BBX 16 16 0 0
BITMAP
0000
0000
0000
0000
0000
0000
0000
0000
0000
0000
0000
0000
0000
0000
0000
0000
ENDCHAR
STARTCHAR U+F6B7
ENCODING 63159
SWIDTH 16000 0
DWIDTH 16 0
BBX 16 16 0 0
BITMAP
0000
0038
0018
0018
0018
0018
001F
0018
0018
0018
0018
0018
0018
0018
0010
0000
ENDCHAR
STARTCHAR U+F6B8
ENCODING 63160
SWIDTH 16000 0
DWIDTH 16 0
BBX 16 16 0 0
BITMAP
0000
000E
0076
0036
0036
0036
003E
0036
0036
0036
0036
0036
0036
0026
0004
0000
ENDCHAR
STARTCHAR U+F6B9
ENCODING 63161
SWIDTH 16000 0
DWIDTH 16 0
BBX 16 16 0 0
BITMAP
0000
0038
0018
0018
0018
001F
0018
0018
001F
0018
0018
0018
0018
0018
0010
0000
ENDCHAR
STARTCHAR U+F6BA
ENCODING 63162
SWIDTH 16000 0
DWIDTH 16 0
BBX 16 16 0 0
BITMAP
0000
000E
0076
0036
0036
003E
0036
0036
003E
0036
0036
0036
0036
0026
0004
0000
ENDCHAR
STARTCHAR U+F6BB
ENCODING 63163
SWIDTH 16000 0
DWIDTH 16 0
BBX 16 16 0 0
BITMAP
0000
001C
000C
000C
000C
000C
007C
000C
000C
000C
000C
000C
000C
000C
0008
0000
ENDCHAR
STARTCHAR U+F6BC
ENCODING 63164
SWIDTH 16000 0
DWIDTH 16 0
BBX 16 16 0 0
BITMAP
0000
000E
0076
0036
0036
0036
0076
0036
0036
0036
0036
0036
0036
0026
0004
0000
ENDCHAR
STARTCHAR U+F6BD
ENCODING 63165
SWIDTH 16000 0
DWIDTH 16 0
BBX 16 16 0 0
BITMAP
0000
001C
000C
000C
000C
007C
000C
007C
000C
000C
000C
000C
000C
000C
0008
0000
ENDCHAR
STARTCHAR U+F6BE
ENCODING 63166
SWIDTH 16000 0
DWIDTH 16 0
BBX 16 16 0 0
BITMAP
0000
000E
0076
0036
0036
0076
0036
0076
0036
0036
0036
0036
0036
0026
0004
0000
ENDCHAR
STARTCHAR U+F6BF
ENCODING 63167
SWIDTH 16000 0
DWIDTH 16 0
BBX 16 16 0 0
BITMAP
0000
0000
0000
0000
0000
0000
0000
0000
0180
0180
0180
7FFE
0000
0000
0000
0000
ENDCHAR
STARTCHAR U+F6C0
ENCODING 63168
SWIDTH 16000 0
DWIDTH 16 0
BBX 16 16 0 0
BITMAP
0000
0038
0018
0018
0018
0018
0018
001F
0C18
0C18
7FD8
0018
0018
0018
0010
0000
ENDCHAR
STARTCHAR U+F6C1
ENCODING 63169
SWIDTH 16000 0
DWIDTH 16 0
BBX 16 16 0 0
BITMAP
0000
000E
0076
0036
0036
0036
003E
0036
0C36
0C36
7FB6
0036
0036
0026
0004
0000
ENDCHAR
STARTCHAR U+F6C2
ENCODING 63170
SWIDTH 16000 0
DWIDTH 16 0
BBX 16 16 0 0
BITMAP
0000
001C
000C
000C
000C
000C
000C
000C
0C0C
0C0C
7FEC
000C
000C
000C
0008
0000
ENDCHAR
STARTCHAR U+F6C3
ENCODING 63171
SWIDTH 16000 0
DWIDTH 16 0
BBX 16 16 0 0
BITMAP
0000
0000
0000
0000
0000
0000
0000
0000
0660
0660
0660
7FFE
0000
0000
0000
0000
ENDCHAR
STARTCHAR U+F6C4
ENCODING 63172
SWIDTH 16000 0
DWIDTH 16 0
BBX 16 16 0 0
BITMAP
0000
0000
0000
0000
0000
0000
0000
0000
7FFE
0180
0180
0180
0180
0180
0100
0000
ENDCHAR
STARTCHAR U+F6C5
ENCODING 63173
SWIDTH 16000 0
DWIDTH 16 0
BBX 16 16 0 0
BITMAP
0000
001C
000C
000C
000C
000C
000C
000C
7FEC
060C
067C
060C
060C
040C
0008
0000
ENDCHAR
STARTCHAR U+F6C6
ENCODING 63174
SWIDTH 16000 0
DWIDTH 16 0
BBX 16 16 0 0
BITMAP
0000
000E
0076
0036
0036
0036
0036
0036
7FB6
0C36
0DF6
0C36
0836
0026
0004
0000
ENDCHAR
STARTCHAR U+F6C7
ENCODING 63175
SWIDTH 16000 0
DWIDTH 16 0
BBX 16 16 0 0
BITMAP
0000
001C
000C
000C
000C
000C
000C
000C
7FEC
060C
060C
060C
060C
040C
0008
0000
ENDCHAR
STARTCHAR U+F6C8
ENCODING 63176
SWIDTH 16000 0
DWIDTH 16 0
BBX 16 16 0 0
BITMAP
0000
0000
0000
0000
0000
0000
0000
0000
7FFE
0660
0660
0660
0660
0660
0440
0000
ENDCHAR
STARTCHAR U+F6C9
ENCODING 63177
SWIDTH 16000 0
DWIDTH 16 0
BBX 16 16 0 0
BITMAP
0000
0000
0000
0000
0000
0000
0000
0000
0000
0000
0000
7FFE
0000
0000
0000
0000
ENDCHAR
STARTCHAR U+F6CA
ENCODING 63178
SWIDTH 16000 0
DWIDTH 16 0
BBX 16 16 0 0
BITMAP
0000
001C
000C
000C
000C
000C
000C
000C
000C
00EC
7F0C
000C
000C
000C
0008
0000
ENDCHAR
STARTCHAR U+F6CB
ENCODING 63179
SWIDTH 16000 0
DWIDTH 16 0
BBX 16 16 0 0
BITMAP
0000
001C
000C
000C
000C
000C
000C
000C
000C
000C
000C
000C
000C
000C
0008
0000
ENDCHAR
STARTCHAR U+F6CC
ENCODING 63180
SWIDTH 16000 0
DWIDTH 16 0
BBX 16 16 0 0
BITMAP
0000
0000
0000
0000
0000
0000
0000
0000
0000
0000
0000
0000
0000
0000
0000
0000
ENDCHAR
STARTCHAR U+F6CD
ENCODING 63181
SWIDTH 16000 0
DWIDTH 16 0
BBX 16 16 0 0
BITMAP
0000
0038
0018
0018
0018
001F
0018
0018
0018
0010
0000
0000
0000
0000
0000
0000
ENDCHAR
STARTCHAR U+F6CE
ENCODING 63182
SWIDTH 16000 0
DWIDTH 16 0
BBX 16 16 0 0
BITMAP
0000
000E
0076
0036
0036
003E
0036
0036
0036
0024
0000
0000
0000
0000
0000
0000
ENDCHAR
STARTCHAR U+F6CF
ENCODING 63183
SWIDTH 16000 0
DWIDTH 16 0
BBX 16 16 0 0
BITMAP
0000
0038
0018
0018
001F
0018
001F
0018
0018
0010
0000
0000
0000
0000
0000
0000
ENDCHAR
STARTCHAR U+F6D0
ENCODING 63184
SWIDTH 16000 0
DWIDTH 16 0
BBX 16 16 0 0
BITMAP
0000
000E
0076
0036
003E
0036
003E
0036
0036
0024
0000
0000
0000
0000
0000
0000
ENDCHAR
STARTCHAR U+F6D1
ENCODING 63185
SWIDTH 16000 0
DWIDTH 16 0
BBX 16 16 0 0
BITMAP
0000
001C
000C
000C
000C
00FC
000C
000C
000C
0008
0000
0000
0000
0000
0000
0000
ENDCHAR
STARTCHAR U+F6D2
ENCODING 63186
SWIDTH 16000 0
DWIDTH 16 0
BBX 16 16 0 0
BITMAP
0000
000E
0076
0036
0036
00F6
0036
0036
0036
0024
0000
0000
0000
0000
0000
0000
ENDCHAR
STARTCHAR U+F6D3
ENCODING 63187
SWIDTH 16000 0
DWIDTH 16 0
BBX 16 16 0 0
BITMAP
0000
001C
000C
000C
007C
000C
007C
000C
000C
0008
0000
0000
0000
0000
0000
0000
ENDCHAR
STARTCHAR U+F6D4
ENCODING 63188
SWIDTH 16000 0
DWIDTH 16 0
BBX 16 16 0 0
BITMAP
0000
000E
0076
0036
00F6
0036
00F6
0036
0036
0024
0000
0000
0000
0000
0000
0000
ENDCHAR
STARTCHAR U+F6D5
ENCODING 63189
SWIDTH 16000 0
DWIDTH 16 0
BBX 16 16 0 0
BITMAP
0000
0000
0000
0000
0000
0000
0180
0180
7FFE
0000
0000
0000
0000
0000
0000
0000
ENDCHAR
STARTCHAR U+F6D6
ENCODING 63190
SWIDTH 16000 0
DWIDTH 16 0
BBX 16 16 0 0
BITMAP
0000
0038
0018
0018
0018
001F
0C18
0C18
7FD8
0010
0000
0000
0000
0000
0000
0000
ENDCHAR
STARTCHAR U+F6D7
ENCODING 63191
SWIDTH 16000 0
DWIDTH 16 0
BBX 16 16 0 0
BITMAP
0000
000E
0076
0036
0036
003E
1836
1836
7FA6
0004
0000
0000
0000
0000
0000
0000
ENDCHAR
STARTCHAR U+F6D8
ENCODING 63192
SWIDTH 16000 0
DWIDTH 16 0
BBX 16 16 0 0
BITMAP
0000
001C
000C
000C
000C
000C
0C0C
0C0C
7FEC
0008
0000
0000
0000
0000
0000
0000
ENDCHAR
STARTCHAR U+F6D9
ENCODING 63193
SWIDTH 16000 0
DWIDTH 16 0
BBX 16 16 0 0
BITMAP
0000
0000
0000
0000
0000
0000
0C60
0C60
7FFE
0000
0000
0000
0000
0000
0000
0000
ENDCHAR
STARTCHAR U+F6DA
ENCODING 63194
SWIDTH 16000 0
DWIDTH 16 0
BBX 16 16 0 0
BITMAP
0000
0000
0000
0000
0000
0000
0000
7FFE
0180
0180
0100
0000
0000
0000
0000
0000
ENDCHAR
STARTCHAR U+F6DB
ENCODING 63195
SWIDTH 16000 0
DWIDTH 16 0
BBX 16 16 0 0
BITMAP
0000
0000
001C
000C
000C
000C
7FEC
060C
067C
060C
0408
0000
0000
0000
0000
0000
ENDCHAR
STARTCHAR U+F6DC
ENCODING 63196
SWIDTH 16000 0
DWIDTH 16 0
BBX 16 16 0 0
BITMAP
0000
000E
0076
0036
0036
0036
00F6
0036
7FB6
0C36
0824
0000
0000
0000
0000
0000
ENDCHAR
STARTCHAR U+F6DD
ENCODING 63197
SWIDTH 16000 0
DWIDTH 16 0
BBX 16 16 0 0
BITMAP
0000
000E
0006
0006
0006
0006
0006
3FE6
0606
0604
0000
0000
0000
0000
0000
0000
ENDCHAR
STARTCHAR U+F6DE
ENCODING 63198
SWIDTH 16000 0
DWIDTH 16 0
BBX 16 16 0 0
BITMAP
0000
0000
0000
0000
0000
0000
0000
0000
7FFE
0660
0660
0000
0000
0000
0000
0000
ENDCHAR
STARTCHAR U+F6DF
ENCODING 63199
SWIDTH 16000 0
DWIDTH 16 0
BBX 16 16 0 0
BITMAP
0000
0000
0000
0000
0000
0000
0000
0000
7FFE
0000
0000
0000
0000
0000
0000
0000
ENDCHAR
STARTCHAR U+F6E0
ENCODING 63200
SWIDTH 16000 0
DWIDTH 16 0
BBX 16 16 0 0
BITMAP
0000
001C
000C
000C
000C
000C
000C
000C
7FEC
0008
0000
0000
0000
0000
0000
0000
ENDCHAR
STARTCHAR U+F6E1
ENCODING 63201
SWIDTH 16000 0
DWIDTH 16 0
BBX 16 16 0 0
BITMAP
0000
001C
000C
000C
000C
000C
000C
000C
000C
0008
0000
0000
0000
0000
0000
0000
ENDCHAR
STARTCHAR U+F6E2
ENCODING 63202
SWIDTH 16000 0
DWIDTH 16 0
BBX 16 16 0 0
BITMAP
0000
0000
0000
0000
0000
0000
0000
0000
0000
0000
0000
0000
0000
0000
0000
0000
ENDCHAR
STARTCHAR U+F6E3
ENCODING 63203
SWIDTH 16000 0
DWIDTH 16 0
BBX 16 16 0 0
BITMAP
0000
0038
0018
0018
0018
001F
0018
0018
0018
0010
0000
0000
0000
0000
0000
0000
ENDCHAR
STARTCHAR U+F6E4
ENCODING 63204
SWIDTH 16000 0
DWIDTH 16 0
BBX 16 16 0 0
BITMAP
0000
000E
0076
0036
0036
003E
0036
0036
0036
0024
0000
0000
0000
0000
0000
0000
ENDCHAR
STARTCHAR U+F6E5
ENCODING 63205
SWIDTH 16000 0
DWIDTH 16 0
BBX 16 16 0 0
BITMAP
0000
0038
0018
0018
001F
0018
001F
0018
0018
0010
0000
0000
0000
0000
0000
0000
ENDCHAR
STARTCHAR U+F6E6
ENCODING 63206
SWIDTH 16000 0
DWIDTH 16 0
BBX 16 16 0 0
BITMAP
0000
000E
0076
0036
003E
0036
003E
0036
0036
0024
0000
0000
0000
0000
0000
0000
ENDCHAR
STARTCHAR U+F6E7
ENCODING 63207
SWIDTH 16000 0
DWIDTH 16 0
BBX 16 16 0 0
BITMAP
0000
001C
000C
000C
000C
007C
000C
000C
000C
0008
0000
0000
0000
0000
0000
0000
ENDCHAR
STARTCHAR U+F6E8
ENCODING 63208
SWIDTH 16000 0
DWIDTH 16 0
BBX 16 16 0 0
BITMAP
0000
000E
0076
0036
0036
0076
0036
0036
0036
0024
0000
0000
0000
0000
0000
0000
ENDCHAR
STARTCHAR U+F6E9
ENCODING 63209
SWIDTH 16000 0
DWIDTH 16 0
BBX 16 16 0 0
BITMAP
0000
001C
000C
000C
007C
000C
007C
000C
000C
0008
0000
0000
0000
0000
0000
0000
ENDCHAR
STARTCHAR U+F6EA
ENCODING 63210
SWIDTH 16000 0
DWIDTH 16 0
BBX 16 16 0 0
BITMAP
0000
000E
0076
0036
0076
0036
0076
0036
0036
0024
0000
0000
0000
0000
0000
0000
ENDCHAR
STARTCHAR U+F6EB
ENCODING 63211
SWIDTH 16000 0
DWIDTH 16 0
BBX 16 16 0 0
BITMAP
0000
0000
0000
0000
0000
0000
0180
0180
7FFE
0000
0000
0000
0000
0000
0000
0000
ENDCHAR
STARTCHAR U+F6EC
ENCODING 63212
SWIDTH 16000 0
DWIDTH 16 0
BBX 16 16 0 0
BITMAP
0000
0038
0018
0018
0018
001F
0C18
0C18
7FD8
0010
0000
0000
0000
0000
0000
0000
ENDCHAR
STARTCHAR U+F6ED
ENCODING 63213
SWIDTH 16000 0
DWIDTH 16 0
BBX 16 16 0 0
BITMAP
0000
000E
0076
0036
0036
003E
0C36
0C36
7FA6
0004
0000
0000
0000
0000
0000
0000
ENDCHAR
STARTCHAR U+F6EE
ENCODING 63214
SWIDTH 16000 0
DWIDTH 16 0
BBX 16 16 0 0
BITMAP
0000
001C
000C
000C
000C
000C
0C0C
0C0C
7FEC
0008
0000
0000
0000
0000
0000
0000
ENDCHAR
STARTCHAR U+F6EF
ENCODING 63215
SWIDTH 16000 0
DWIDTH 16 0
BBX 16 16 0 0
BITMAP
0000
0000
0000
0000
0000
0000
0660
0660
7FFE
0000
0000
0000
0000
0000
0000
0000
ENDCHAR
STARTCHAR U+F6F0
ENCODING 63216
SWIDTH 16000 0
DWIDTH 16 0
BBX 16 16 0 0
BITMAP
0000
0000
0000
0000
0000
0000
0000
0000
7FFE
0180
0180
0000
0000
0000
0000
0000
ENDCHAR
STARTCHAR U+F6F1
ENCODING 63217
SWIDTH 16000 0
DWIDTH 16 0
BBX 16 16 0 0
BITMAP
0000
000E
0006
0006
0006
0006
0006
3FE6
061E
0606
0000
0000
0000
0000
0000
0000
ENDCHAR
STARTCHAR U+F6F2
ENCODING 63218
SWIDTH 16000 0
DWIDTH 16 0
BBX 16 16 0 0
BITMAP
0000
000E
0076
0036
0036
00F6
0036
7FB6
0C36
0824
0000
0000
0000
0000
0000
0000
ENDCHAR
STARTCHAR U+F6F3
ENCODING 63219
SWIDTH 16000 0
DWIDTH 16 0
BBX 16 16 0 0
BITMAP
0000
000E
0006
0006
0006
0006
0006
3FE6
0606
0604
0000
0000
0000
0000
0000
0000
ENDCHAR
STARTCHAR U+F6F4
ENCODING 63220
SWIDTH 16000 0
DWIDTH 16 0
BBX 16 16 0 0
BITMAP
0000
0000
0000
0000
0000
0000
0000
0000
7FFE
0660
0660
0000
0000
0000
0000
0000
ENDCHAR
STARTCHAR U+F6F5
ENCODING 63221
SWIDTH 16000 0
DWIDTH 16 0
BBX 16 16 0 0
BITMAP
0000
0000
0000
0000
0000
0000
0000
0000
7FFE
0000
0000
0000
0000
0000
0000
0000
ENDCHAR
STARTCHAR U+F6F6
ENCODING 63222
SWIDTH 16000 0
DWIDTH 16 0
BBX 16 16 0 0
BITMAP
0000
001C
000C
000C
000C
000C
000C
000C
7FEC
0008
0000
0000
0000
0000
0000
0000
ENDCHAR
STARTCHAR U+F6F7
ENCODING 63223
SWIDTH 16000 0
DWIDTH 16 0
BBX 16 16 0 0
BITMAP
0000
001C
000C
000C
000C
000C
000C
000C
000C
0008
0000
0000
0000
0000
0000
0000
ENDCHAR
STARTCHAR U+F6F8
ENCODING 63224
SWIDTH 16000 0
DWIDTH 16 0
BBX 16 16 0 0
BITMAP
0000
0000
0000
0000
0000
0000
0000
0000
0000
0000
0000
0000
0000
0000
0000
0000
ENDCHAR
STARTCHAR U+F6F9
ENCODING 63225
SWIDTH 16000 0
DWIDTH 16 0
BBX 16 16 0 0
BITMAP
0000
0000
0000
0000
0000
0000
0000
0000
0000
0000
0FF8
0018
0018
0018
0010
0000
ENDCHAR
STARTCHAR U+F6FA
ENCODING 63226
SWIDTH 16000 0
DWIDTH 16 0
BBX 16 16 0 0
BITMAP
0000
0000
0000
0000
0000
0000
0000
0000
0000
0000
1FF8
0318
0318
0318
0210
0000
ENDCHAR
STARTCHAR U+F6FB
ENCODING 63227
SWIDTH 16000 0
DWIDTH 16 0
BBX 16 16 0 0
BITMAP
0000
0000
0000
0000
0000
0000
0000
0000
0000
0000
1F30
0330
0338
036C
02CC
0000
ENDCHAR
STARTCHAR U+F6FC
ENCODING 63228
SWIDTH 16000 0
DWIDTH 16 0
BBX 16 16 0 0
BITMAP
0000
0000
0000
0000
0000
0000
0000
0000
0000
0000
0700
0300
0300
0300
01FC
0000
ENDCHAR
STARTCHAR U+F6FD
ENCODING 63229
SWIDTH 16000 0
DWIDTH 16 0
BBX 16 16 0 0
BITMAP
0000
0000
0000
0000
0000
0000
0000
0000
0000
0000
1CFC
0C30
0C30
0C78
07CC
0000
ENDCHAR
STARTCHAR U+F6FE
ENCODING 63230
SWIDTH 16000 0
DWIDTH 16 0
BBX 16 16 0 0
BITMAP
0000
0000
0000
0000
0000
0000
0000
0000
0000
0000
1C30
0CFC
0C78
0CCC
0778
0000
ENDCHAR
STARTCHAR U+F6FF
ENCODING 63231
SWIDTH 16000 0
DWIDTH 16 0
BBX 16 16 0 0
BITMAP
0000
0000
0000
0000
0000
0000
0000
0000
0000
0000
0FF8
0600
0600
0600
03F8
0000
ENDCHAR
STARTCHAR U+F700
ENCODING 63232
SWIDTH 16000 0
DWIDTH 16 0
BBX 16 16 0 0
BITMAP
0000
0000
0000
0000
0000
0000
0000
0000
0000
0000
0FF8
0018
0FF8
0C00
07F8
0000
ENDCHAR
STARTCHAR U+F701
ENCODING 63233
SWIDTH 16000 0
DWIDTH 16 0
BBX 16 16 0 0
BITMAP
0000
0000
0000
0000
0000
0000
0000
0000
0000
0000
1F78
0318
1F18
1818
0F10
0000
ENDCHAR
STARTCHAR U+F702
ENCODING 63234
SWIDTH 16000 0
DWIDTH 16 0
BBX 16 16 0 0
BITMAP
0000
0000
0000
0000
0000
0000
0000
0000
0000
0000
1F7C
036C
1F6C
186C
0F7C
0000
ENDCHAR
STARTCHAR U+F703
ENCODING 63235
SWIDTH 16000 0
DWIDTH 16 0
BBX 16 16 0 0
BITMAP
0000
0000
0000
0000
0000
0000
0000
0000
0000
0000
1F6C
036C
1F7C
186C
0F7C
0000
ENDCHAR
STARTCHAR U+F704
ENCODING 63236
SWIDTH 16000 0
DWIDTH 16 0
BBX 16 16 0 0
BITMAP
0000
0000
0000
0000
0000
0000
0000
0000
0000
0000
0F98
0198
0F98
0C3C
07A6
0000
ENDCHAR
STARTCHAR U+F705
ENCODING 63237
SWIDTH 16000 0
DWIDTH 16 0
BBX 16 16 0 0
BITMAP
0000
0000
0000
0000
0000
0000
0000
0000
0000
0000
1F7C
0360
1F7C
1860
0F7C
0000
ENDCHAR
STARTCHAR U+F706
ENCODING 63238
SWIDTH 16000 0
DWIDTH 16 0
BBX 16 16 0 0
BITMAP
0000
0000
0000
0000
0000
0000
0000
0000
0000
0000
1EFE
036C
1F6C
186C
0EFE
0000
ENDCHAR
STARTCHAR U+F707
ENCODING 63239
SWIDTH 16000 0
DWIDTH 16 0
BBX 16 16 0 0
BITMAP
0000
0000
0000
0000
0000
0000
0000
0000
0000
0000
1F18
037E
1F3C
1866
0F3C
0000
ENDCHAR
STARTCHAR U+F708
ENCODING 63240
SWIDTH 16000 0
DWIDTH 16 0
BBX 16 16 0 0
BITMAP
0000
0000
0000
0000
0000
0000
0000
0000
0000
0000
0FF8
0618
0618
0618
07F8
0000
ENDCHAR
STARTCHAR U+F709
ENCODING 63241
SWIDTH 16000 0
DWIDTH 16 0
BBX 16 16 0 0
BITMAP
0000
0000
0000
0000
0000
0000
0000
0000
0000
0000
0E38
0618
07F8
0618
07F8
0000
ENDCHAR
STARTCHAR U+F70A
ENCODING 63242
SWIDTH 16000 0
DWIDTH 16 0
BBX 16 16 0 0
BITMAP
0000
0000
0000
0000
0000
0000
0000
0000
0000
0000
0D98
0D98
0F98
0DBE
0FE6
0000
ENDCHAR
STARTCHAR U+F70B
ENCODING 63243
SWIDTH 16000 0
DWIDTH 16 0
BBX 16 16 0 0
BITMAP
0000
0000
0000
0000
0000
0000
0000
0000
0000
0000
00C0
00C0
01B0
0318
0C0C
0000
ENDCHAR
STARTCHAR U+F70C
ENCODING 63244
SWIDTH 16000 0
DWIDTH 16 0
BBX 16 16 0 0
BITMAP
0000
0000
0000
0000
0000
0000
0000
0000
0000
0000
0330
0330
07F8
0CCC
1986
0000
ENDCHAR
STARTCHAR U+F70D
ENCODING 63245
SWIDTH 16000 0
DWIDTH 16 0
BBX 16 16 0 0
BITMAP
0000
0000
0000
0000
0000
0000
0000
0000
0000
0000
03F0
0618
0618
0618
03F0
0000
ENDCHAR
STARTCHAR U+F70E
ENCODING 63246
SWIDTH 16000 0
DWIDTH 16 0
BBX 16 16 0 0
BITMAP
0000
0000
0000
0000
0000
0000
0000
0000
0000
0000
0FFC
00C0
01E0
0330
0C0C
0000
ENDCHAR
STARTCHAR U+F70F
ENCODING 63247
SWIDTH 16000 0
DWIDTH 16 0
BBX 16 16 0 0
BITMAP
0000
0000
0000
0000
0000
0000
0000
0000
0000
0000
00C0
0FFC
01E0
0330
0C0C
0000
ENDCHAR
STARTCHAR U+F710
ENCODING 63248
SWIDTH 16000 0
DWIDTH 16 0
BBX 16 16 0 0
BITMAP
0000
0000
0000
0000
0000
0000
0000
0000
0000
0000
07F8
0018
07F8
0018
0010
0000
ENDCHAR
STARTCHAR U+F711
ENCODING 63249
SWIDTH 16000 0
DWIDTH 16 0
BBX 16 16 0 0
BITMAP
0000
0000
0000
0000
0000
0000
0000
0000
0000
0000
0FF8
0600
07F8
0600
03F8
0000
ENDCHAR
STARTCHAR U+F712
ENCODING 63250
SWIDTH 16000 0
DWIDTH 16 0
BBX 16 16 0 0
BITMAP
0000
0000
0000
0000
0000
0000
0000
0000
0000
0000
0FFC
0330
0330
0330
0FFC
0000
ENDCHAR
STARTCHAR U+F713
ENCODING 63251
SWIDTH 16000 0
DWIDTH 16 0
BBX 16 16 0 0
BITMAP
0000
0000
0000
0000
0000
0000
0000
0000
0000
0000
01E0
0FFC
03F0
0618
03F0
0000
ENDCHAR
STARTCHAR U+F714
ENCODING 63252
SWIDTH 16000 0
DWIDTH 16 0
BBX 16 16 0 0
BITMAP
0000
0000
0000
0000
0000
0000
0000
0000
0000
0000
0000
0000
0000
0000
0000
0000
ENDCHAR
STARTCHAR U+F715
ENCODING 63253
SWIDTH 16000 0
DWIDTH 16 0
BBX 16 16 0 0
BITMAP
0000
0000
0000
0000
0000
0000
0000
0000
0000
0000
07FC
000C
000C
000C
0008
0000
ENDCHAR
STARTCHAR U+F716
ENCODING 63254
SWIDTH 16000 0
DWIDTH 16 0
BBX 16 16 0 0
BITMAP
0000
0000
0000
0000
0000
0000
0000
0000
0000
0000
0FFC
018C
018C
018C
0108
0000
ENDCHAR
STARTCHAR U+F717
ENCODING 63255
SWIDTH 16000 0
DWIDTH 16 0
BBX 16 16 0 0
BITMAP
0000
0000
0000
0000
0000
0000
0000
0000
0000
0000
0F98
0198
019C
01B6
0166
0000
ENDCHAR
STARTCHAR U+F718
ENCODING 63256
SWIDTH 16000 0
DWIDTH 16 0
BBX 16 16 0 0
BITMAP
0000
0000
0000
0000
0000
0000
0000
0000
0000
0000
0700
0300
0300
0300
01FC
0000
ENDCHAR
STARTCHAR U+F719
ENCODING 63257
SWIDTH 16000 0
DWIDTH 16 0
BBX 16 16 0 0
BITMAP
0000
0000
0000
0000
0000
0000
0000
0000
0000
0000
0E7E
0618
0618
063C
03E6
0000
ENDCHAR
STARTCHAR U+F71A
ENCODING 63258
SWIDTH 16000 0
DWIDTH 16 0
BBX 16 16 0 0
BITMAP
0000
0000
0000
0000
0000
0000
0000
0000
0000
0000
0E18
067E
063C
0666
03BC
0000
ENDCHAR
STARTCHAR U+F71B
ENCODING 63259
SWIDTH 16000 0
DWIDTH 16 0
BBX 16 16 0 0
BITMAP
0000
0000
0000
0000
0000
0000
0000
0000
0000
0000
07FC
0300
0300
0300
01FC
0000
ENDCHAR
STARTCHAR U+F71C
ENCODING 63260
SWIDTH 16000 0
DWIDTH 16 0
BBX 16 16 0 0
BITMAP
0000
0000
0000
0000
0000
0000
0000
0000
0000
0000
07FC
000C
07FC
0600
03FC
0000
ENDCHAR
STARTCHAR U+F71D
ENCODING 63261
SWIDTH 16000 0
DWIDTH 16 0
BBX 16 16 0 0
BITMAP
0000
0000
0000
0000
0000
0000
0000
0000
0000
0000
0FBC
018C
0F8C
0C0C
0788
0000
ENDCHAR
STARTCHAR U+F71E
ENCODING 63262
SWIDTH 16000 0
DWIDTH 16 0
BBX 16 16 0 0
BITMAP
0000
0000
0000
0000
0000
0000
0000
0000
0000
0000
1F7C
036C
1F6C
186C
0F7C
0000
ENDCHAR
STARTCHAR U+F71F
ENCODING 63263
SWIDTH 16000 0
DWIDTH 16 0
BBX 16 16 0 0
BITMAP
0000
0000
0000
0000
0000
0000
0000
0000
0000
0000
1F6C
036C
1F7C
186C
0F7C
0000
ENDCHAR
STARTCHAR U+F720
ENCODING 63264
SWIDTH 16000 0
DWIDTH 16 0
BBX 16 16 0 0
BITMAP
0000
0000
0000
0000
0000
0000
0000
0000
0000
0000
0F98
0198
0F98
0C3C
07A6
0000
ENDCHAR
STARTCHAR U+F721
ENCODING 63265
SWIDTH 16000 0
DWIDTH 16 0
BBX 16 16 0 0
BITMAP
0000
0000
0000
0000
0000
0000
0000
0000
0000
0000
1F7C
0360
1F7C
1860
0F7C
0000
ENDCHAR
STARTCHAR U+F722
ENCODING 63266
SWIDTH 16000 0
DWIDTH 16 0
BBX 16 16 0 0
BITMAP
0000
0000
0000
0000
0000
0000
0000
0000
0000
0000
1EFE
036C
1F6C
186C
0EFE
0000
ENDCHAR
STARTCHAR U+F723
ENCODING 63267
SWIDTH 16000 0
DWIDTH 16 0
BBX 16 16 0 0
BITMAP
0000
0000
0000
0000
0000
0000
0000
0000
0000
0000
1F18
037E
1F3C
1866
0F3C
0000
ENDCHAR
STARTCHAR U+F724
ENCODING 63268
SWIDTH 16000 0
DWIDTH 16 0
BBX 16 16 0 0
BITMAP
0000
0000
0000
0000
0000
0000
0000
0000
0000
0000
07FC
030C
030C
030C
03FC
0000
ENDCHAR
STARTCHAR U+F725
ENCODING 63269
SWIDTH 16000 0
DWIDTH 16 0
BBX 16 16 0 0
BITMAP
0000
0000
0000
0000
0000
0000
0000
0000
0000
0000
071C
030C
03FC
030C
03FC
0000
ENDCHAR
STARTCHAR U+F726
ENCODING 63270
SWIDTH 16000 0
DWIDTH 16 0
BBX 16 16 0 0
BITMAP
0000
0000
0000
0000
0000
0000
0000
0000
0000
0000
0D98
0D98
0F98
0DBE
0FE6
0000
ENDCHAR
STARTCHAR U+F727
ENCODING 63271
SWIDTH 16000 0
DWIDTH 16 0
BBX 16 16 0 0
BITMAP
0000
0000
0000
0000
0000
0000
0000
0000
0000
0000
00C0
00C0
01B0
0318
0C0C
0000
ENDCHAR
STARTCHAR U+F728
ENCODING 63272
SWIDTH 16000 0
DWIDTH 16 0
BBX 16 16 0 0
BITMAP
0000
0000
0000
0000
0000
0000
0000
0000
0000
0000
0198
0198
03FC
0666
0CC3
0000
ENDCHAR
STARTCHAR U+F729
ENCODING 63273
SWIDTH 16000 0
DWIDTH 16 0
BBX 16 16 0 0
BITMAP
0000
0000
0000
0000
0000
0000
0000
0000
0000
0000
01F8
030C
030C
030C
01F8
0000
ENDCHAR
STARTCHAR U+F72A
ENCODING 63274
SWIDTH 16000 0
DWIDTH 16 0
BBX 16 16 0 0
BITMAP
0000
0000
0000
0000
0000
0000
0000
0000
0000
0000
0FFC
00C0
01E0
0330
0C0C
0000
ENDCHAR
STARTCHAR U+F72B
ENCODING 63275
SWIDTH 16000 0
DWIDTH 16 0
BBX 16 16 0 0
BITMAP
0000
0000
0000
0000
0000
0000
0000
0000
0000
0000
00C0
0FFC
01E0
0330
0C0C
0000
ENDCHAR
STARTCHAR U+F72C
ENCODING 63276
SWIDTH 16000 0
DWIDTH 16 0
BBX 16 16 0 0
BITMAP
0000
0000
0000
0000
0000
0000
0000
0000
0000
0000
03FC
000C
03FC
000C
0008
0000
ENDCHAR
STARTCHAR U+F72D
ENCODING 63277
SWIDTH 16000 0
DWIDTH 16 0
BBX 16 16 0 0
BITMAP
0000
0000
0000
0000
0000
0000
0000
0000
0000
0000
07FC
0300
03FC
0300
01FC
0000
ENDCHAR
STARTCHAR U+F72E
ENCODING 63278
SWIDTH 16000 0
DWIDTH 16 0
BBX 16 16 0 0
BITMAP
0000
0000
0000
0000
0000
0000
0000
0000
0000
0000
0FFC
0330
0330
0330
0FFC
0000
ENDCHAR
STARTCHAR U+F72F
ENCODING 63279
SWIDTH 16000 0
DWIDTH 16 0
BBX 16 16 0 0
BITMAP
0000
0000
0000
0000
0000
0000
0000
0000
0000
0000
00F0
07FE
01F8
030C
01F8
0000
ENDCHAR
STARTCHAR U+F730
ENCODING 63280
SWIDTH 16000 0
DWIDTH 16 0
BBX 16 16 0 0
BITMAP
0000
0000
0000
0000
0000
0000
0000
0000
0000
0000
0000
0000
0000
0000
0000
0000
ENDCHAR
STARTCHAR U+F731
ENCODING 63281
SWIDTH 16000 0
DWIDTH 16 0
BBX 16 16 0 0
BITMAP
0000
0000
0000
0000
0000
0000
0000
0000
0000
0000
07FE
0006
0006
0006
0004
0000
ENDCHAR
STARTCHAR U+F732
ENCODING 63282
SWIDTH 16000 0
DWIDTH 16 0
BBX 16 16 0 0
BITMAP
0000
0000
0000
0000
0000
0000
0000
0000
0000
0000
0FFE
00C6
00C6
00C6
0084
0000
ENDCHAR
STARTCHAR U+F733
ENCODING 63283
SWIDTH 16000 0
DWIDTH 16 0
BBX 16 16 0 0
BITMAP
0000
0000
0000
0000
0000
0000
0000
0000
0000
0000
0FCC
00CC
00CE
00DB
00B3
0000
ENDCHAR
STARTCHAR U+F734
ENCODING 63284
SWIDTH 16000 0
DWIDTH 16 0
BBX 16 16 0 0
BITMAP
0000
0000
0000
0000
0000
0000
0000
0000
0000
0000
0700
0300
0300
0300
01FE
0000
ENDCHAR
STARTCHAR U+F735
ENCODING 63285
SWIDTH 16000 0
DWIDTH 16 0
BBX 16 16 0 0
BITMAP
0000
0000
0000
0000
0000
0000
0000
0000
0000
0000
1C7E
0C18
0C18
0C3C
0766
0000
ENDCHAR
STARTCHAR U+F736
ENCODING 63286
SWIDTH 16000 0
DWIDTH 16 0
BBX 16 16 0 0
BITMAP
0000
0000
0000
0000
0000
0000
0000
0000
0000
0000
1C18
0C7E
0C3C
0C66
07BC
0000
ENDCHAR
STARTCHAR U+F737
ENCODING 63287
SWIDTH 16000 0
DWIDTH 16 0
BBX 16 16 0 0
BITMAP
0000
0000
0000
0000
0000
0000
0000
0000
0000
0000
07FC
0300
0300
0300
01FC
0000
ENDCHAR
STARTCHAR U+F738
ENCODING 63288
SWIDTH 16000 0
DWIDTH 16 0
BBX 16 16 0 0
BITMAP
0000
0000
0000
0000
0000
0000
0000
0000
0000
0000
03FE
0006
03FE
0300
01FE
0000
ENDCHAR
STARTCHAR U+F739
ENCODING 63289
SWIDTH 16000 0
DWIDTH 16 0
BBX 16 16 0 0
BITMAP
0000
0000
0000
0000
0000
0000
0000
0000
0000
0000
07DE
00C6
07C6
0606
03C4
0000
ENDCHAR
STARTCHAR U+F73A
ENCODING 63290
SWIDTH 16000 0
DWIDTH 16 0
BBX 16 16 0 0
BITMAP
0000
0000
0000
0000
0000
0000
0000
0000
0000
0000
0FBE
01B6
0FB6
0C36
07BE
0000
ENDCHAR
STARTCHAR U+F73B
ENCODING 63291
SWIDTH 16000 0
DWIDTH 16 0
BBX 16 16 0 0
BITMAP
0000
0000
0000
0000
0000
0000
0000
0000
0000
0000
0FB6
01B6
0FBE
0C36
07BE
0000
ENDCHAR
STARTCHAR U+F73C
ENCODING 63292
SWIDTH 16000 0
DWIDTH 16 0
BBX 16 16 0 0
BITMAP
0000
0000
0000
0000
0000
0000
0000
0000
0000
0000
07CC
00CC
07CC
061E
03D3
0000
ENDCHAR
STARTCHAR U+F73D
ENCODING 63293
SWIDTH 16000 0
DWIDTH 16 0
BBX 16 16 0 0
BITMAP
0000
0000
0000
0000
0000
0000
0000
0000
0000
0000
0FBE
01B0
0FBE
0C30
07BE
0000
ENDCHAR
STARTCHAR U+F73E
ENCODING 63294
SWIDTH 16000 0
DWIDTH 16 0
BBX 16 16 0 0
BITMAP
0000
0000
0000
0000
0000
0000
0000
0000
0000
0000
1EFE
036C
1F6C
186C
0EFE
0000
ENDCHAR
STARTCHAR U+F73F
ENCODING 63295
SWIDTH 16000 0
DWIDTH 16 0
BBX 16 16 0 0
BITMAP
0000
0000
0000
0000
0000
0000
0000
0000
0000
0000
1F18
037E
1F3C
1866
0F3C
0000
ENDCHAR
STARTCHAR U+F740
ENCODING 63296
SWIDTH 16000 0
DWIDTH 16 0
BBX 16 16 0 0
BITMAP
0000
0000
0000
0000
0000
0000
0000
0000
0000
0000
07FE
0306
0306
0306
03FE
0000
ENDCHAR
STARTCHAR U+F741
ENCODING 63297
SWIDTH 16000 0
DWIDTH 16 0
BBX 16 16 0 0
BITMAP
0000
0000
0000
0000
0000
0000
0000
0000
0000
0000
070E
0306
03FE
0306
03FE
0000
ENDCHAR
STARTCHAR U+F742
ENCODING 63298
SWIDTH 16000 0
DWIDTH 16 0
BBX 16 16 0 0
BITMAP
0000
0000
0000
0000
0000
0000
0000
0000
0000
0000
0D98
0D98
0F98
0DBE
0FE6
0000
ENDCHAR
STARTCHAR U+F743
ENCODING 63299
SWIDTH 16000 0
DWIDTH 16 0
BBX 16 16 0 0
BITMAP
0000
0000
0000
0000
0000
0000
0000
0000
0000
0000
0060
0060
00D8
018C
0606
0000
ENDCHAR
STARTCHAR U+F744
ENCODING 63300
SWIDTH 16000 0
DWIDTH 16 0
BBX 16 16 0 0
BITMAP
0000
0000
0000
0000
0000
0000
0000
0000
0000
0000
0198
0198
03FC
0666
0CC3
0000
ENDCHAR
STARTCHAR U+F745
ENCODING 63301
SWIDTH 16000 0
DWIDTH 16 0
BBX 16 16 0 0
BITMAP
0000
0000
0000
0000
0000
0000
0000
0000
0000
0000
00FC
0186
0186
0186
00FC
0000
ENDCHAR
STARTCHAR U+F746
ENCODING 63302
SWIDTH 16000 0
DWIDTH 16 0
BBX 16 16 0 0
BITMAP
0000
0000
0000
0000
0000
0000
0000
0000
0000
0000
07FE
0060
00F0
0198
0606
0000
ENDCHAR
STARTCHAR U+F747
ENCODING 63303
SWIDTH 16000 0
DWIDTH 16 0
BBX 16 16 0 0
BITMAP
0000
0000
0000
0000
0000
0000
0000
0000
0000
0000
0060
07FE
00F0
0198
0606
0000
ENDCHAR
STARTCHAR U+F748
ENCODING 63304
SWIDTH 16000 0
DWIDTH 16 0
BBX 16 16 0 0
BITMAP
0000
0000
0000
0000
0000
0000
0000
0000
0000
0000
03FE
0006
03FE
0006
0004
0000
ENDCHAR
STARTCHAR U+F749
ENCODING 63305
SWIDTH 16000 0
DWIDTH 16 0
BBX 16 16 0 0
BITMAP
0000
0000
0000
0000
0000
0000
0000
0000
0000
0000
03FE
0180
01FE
0180
00FE
0000
ENDCHAR
STARTCHAR U+F74A
ENCODING 63306
SWIDTH 16000 0
DWIDTH 16 0
BBX 16 16 0 0
BITMAP
0000
0000
0000
0000
0000
0000
0000
0000
0000
0000
07FE
0198
0198
0198
07FE
0000
ENDCHAR
STARTCHAR U+F74B
ENCODING 63307
SWIDTH 16000 0
DWIDTH 16 0
BBX 16 16 0 0
BITMAP
0000
0000
0000
0000
0000
0000
0000
0000
0000
0000
00F0
07FE
01F8
030C
01F8
0000
ENDCHAR
STARTCHAR U+F74C
ENCODING 63308
SWIDTH 16000 0
DWIDTH 16 0
BBX 16 16 0 0
BITMAP
0000
0000
0000
0000
0000
0000
0000
0000
0000
0000
0000
0000
0000
0000
0000
0000
ENDCHAR
STARTCHAR U+F74D
ENCODING 63309
SWIDTH 16000 0
DWIDTH 16 0
BBX 16 16 0 0
BITMAP
0000
0000
0000
0000
0000
0000
0000
0000
0000
0000
1FF8
0018
0018
0018
0010
0000
ENDCHAR
STARTCHAR U+F74E
ENCODING 63310
SWIDTH 16000 0
DWIDTH 16 0
BBX 16 16 0 0
BITMAP
0000
0000
0000
0000
0000
0000
0000
0000
0000
0000
3EF8
0618
0618
0618
0410
0000
ENDCHAR
STARTCHAR U+F74F
ENCODING 63311
SWIDTH 16000 0
DWIDTH 16 0
BBX 16 16 0 0
BITMAP
0000
0000
0000
0000
0000
0000
0000
0000
0000
0000
1F30
0330
0338
036C
02CC
0000
ENDCHAR
STARTCHAR U+F750
ENCODING 63312
SWIDTH 16000 0
DWIDTH 16 0
BBX 16 16 0 0
BITMAP
0000
0000
0000
0000
0000
0000
0000
0000
0000
0000
3800
1800
1800
1800
0FF8
0000
ENDCHAR
STARTCHAR U+F751
ENCODING 63313
SWIDTH 16000 0
DWIDTH 16 0
BBX 16 16 0 0
BITMAP
0000
0000
0000
0000
0000
0000
0000
0000
0000
0000
38FC
1830
1830
1878
0ECC
0000
ENDCHAR
STARTCHAR U+F752
ENCODING 63314
SWIDTH 16000 0
DWIDTH 16 0
BBX 16 16 0 0
BITMAP
0000
0000
0000
0000
0000
0000
0000
0000
0000
0000
3830
18FC
1878
18CC
0F78
0000
ENDCHAR
STARTCHAR U+F753
ENCODING 63315
SWIDTH 16000 0
DWIDTH 16 0
BBX 16 16 0 0
BITMAP
0000
0000
0000
0000
0000
0000
0000
0000
0000
0000
0000
3FF8
1800
1800
0FF8
0000
ENDCHAR
STARTCHAR U+F754
ENCODING 63316
SWIDTH 16000 0
DWIDTH 16 0
BBX 16 16 0 0
BITMAP
0000
0000
0000
0000
0000
0000
0000
0000
0000
0000
1FF8
0018
1FF8
1800
0FF8
0000
ENDCHAR
STARTCHAR U+F755
ENCODING 63317
SWIDTH 16000 0
DWIDTH 16 0
BBX 16 16 0 0
BITMAP
0000
0000
0000
0000
0000
0000
0000
0000
0000
0000
1F7C
030C
1F0C
180C
0F08
0000
ENDCHAR
STARTCHAR U+F756
ENCODING 63318
SWIDTH 16000 0
DWIDTH 16 0
BBX 16 16 0 0
BITMAP
0000
0000
0000
0000
0000
0000
0000
0000
0000
0000
3EFC
06CC
3ECC
30CC
1EFC
0000
ENDCHAR
STARTCHAR U+F757
ENCODING 63319
SWIDTH 16000 0
DWIDTH 16 0
BBX 16 16 0 0
BITMAP
0000
0000
0000
0000
0000
0000
0000
0000
0000
0000
1F6C
036C
1F7C
186C
0F7C
0000
ENDCHAR
STARTCHAR U+F758
ENCODING 63320
SWIDTH 16000 0
DWIDTH 16 0
BBX 16 16 0 0
BITMAP
0000
0000
0000
0000
0000
0000
0000
0000
0000
0000
1F18
0318
1F18
183C
0F66
0000
ENDCHAR
STARTCHAR U+F759
ENCODING 63321
SWIDTH 16000 0
DWIDTH 16 0
BBX 16 16 0 0
BITMAP
0000
0000
0000
0000
0000
0000
0000
0000
0000
0000
1F7C
0360
1F7C
1860
0F7C
0000
ENDCHAR
STARTCHAR U+F75A
ENCODING 63322
SWIDTH 16000 0
DWIDTH 16 0
BBX 16 16 0 0
BITMAP
0000
0000
0000
0000
0000
0000
0000
0000
0000
0000
1EFE
036C
1F6C
186C
0EFE
0000
ENDCHAR
STARTCHAR U+F75B
ENCODING 63323
SWIDTH 16000 0
DWIDTH 16 0
BBX 16 16 0 0
BITMAP
0000
0000
0000
0000
0000
0000
0000
0000
0000
0000
3E30
06FC
3E78
30CC
1E78
0000
ENDCHAR
STARTCHAR U+F75C
ENCODING 63324
SWIDTH 16000 0
DWIDTH 16 0
BBX 16 16 0 0
BITMAP
0000
0000
0000
0000
0000
0000
0000
0000
0000
0000
1FF8
0C18
0C18
0C18
0FF8
0000
ENDCHAR
STARTCHAR U+F75D
ENCODING 63325
SWIDTH 16000 0
DWIDTH 16 0
BBX 16 16 0 0
BITMAP
0000
0000
0000
0000
0000
0000
0000
0000
0000
0000
3838
1818
1FF8
1818
1FF8
0000
ENDCHAR
STARTCHAR U+F75E
ENCODING 63326
SWIDTH 16000 0
DWIDTH 16 0
BBX 16 16 0 0
BITMAP
0000
0000
0000
0000
0000
0000
0000
0000
0000
0000
1B30
1B30
1F30
1B7C
1FCC
0000
ENDCHAR
STARTCHAR U+F75F
ENCODING 63327
SWIDTH 16000 0
DWIDTH 16 0
BBX 16 16 0 0
BITMAP
0000
0000
0000
0000
0000
0000
0000
0000
0000
0000
0180
0180
0360
0630
1818
0000
ENDCHAR
STARTCHAR U+F760
ENCODING 63328
SWIDTH 16000 0
DWIDTH 16 0
BBX 16 16 0 0
BITMAP
0000
0000
0000
0000
0000
0000
0000
0000
0000
0000
0C30
0C30
1E78
33CC
6186
0000
ENDCHAR
STARTCHAR U+F761
ENCODING 63329
SWIDTH 16000 0
DWIDTH 16 0
BBX 16 16 0 0
BITMAP
0000
0000
0000
0000
0000
0000
0000
0000
0000
0000
07E0
0C30
0C30
0C30
07E0
0000
ENDCHAR
STARTCHAR U+F762
ENCODING 63330
SWIDTH 16000 0
DWIDTH 16 0
BBX 16 16 0 0
BITMAP
0000
0000
0000
0000
0000
0000
0000
0000
0000
0000
1FF8
0180
03C0
0660
1818
0000
ENDCHAR
STARTCHAR U+F763
ENCODING 63331
SWIDTH 16000 0
DWIDTH 16 0
BBX 16 16 0 0
BITMAP
0000
0000
0000
0000
0000
0000
0000
0000
0000
0000
0180
1FF8
03C0
0660
1818
0000
ENDCHAR
STARTCHAR U+F764
ENCODING 63332
SWIDTH 16000 0
DWIDTH 16 0
BBX 16 16 0 0
BITMAP
0000
0000
0000
0000
0000
0000
0000
0000
0000
0000
1FF8
0018
1FF8
0018
0010
0000
ENDCHAR
STARTCHAR U+F765
ENCODING 63333
SWIDTH 16000 0
DWIDTH 16 0
BBX 16 16 0 0
BITMAP
0000
0000
0000
0000
0000
0000
0000
0000
0000
0000
1FF8
0C00
0FF8
0C00
07F8
0000
ENDCHAR
STARTCHAR U+F766
ENCODING 63334
SWIDTH 16000 0
DWIDTH 16 0
BBX 16 16 0 0
BITMAP
0000
0000
0000
0000
0000
0000
0000
0000
0000
0000
1FF8
0660
0660
0660
1FF8
0000
ENDCHAR
STARTCHAR U+F767
ENCODING 63335
SWIDTH 16000 0
DWIDTH 16 0
BBX 16 16 0 0
BITMAP
0000
0000
0000
0000
0000
0000
0000
0000
0000
0000
03C0
1FF8
07E0
0C30
07E0
0000
ENDCHAR
ENDFONT
